<svg width="314" height="65" viewBox="0 0 314 65" fill="none" xmlns="http://www.w3.org/2000/svg">
<g clip-path="url(#clip0_4_2219)">
<g clip-path="url(#clip1_4_2219)">
<path d="M154.202 24.2875V32.714H152.661V25.6116H149.338L149.266 27.7183C149.226 28.898 149.13 29.857 148.977 30.5953C148.825 31.3256 148.58 31.8834 148.243 32.2686C147.906 32.6458 147.441 32.8344 146.847 32.8344C146.638 32.8344 146.353 32.7942 145.992 32.714L146.1 31.3537C146.205 31.3858 146.325 31.4019 146.461 31.4019C146.951 31.4019 147.296 31.113 147.497 30.5351C147.705 29.9493 147.834 29.0304 147.882 27.7785L148.002 24.2875H154.202ZM156.584 26.2858H158.089V30.5231L161.64 26.2858H163.012V32.714H161.508V28.4767L157.969 32.714H156.584V26.2858ZM172.079 31.438V34.1465H170.67V32.714H165.711V34.1465H164.314V31.438H164.615C165.025 31.4219 165.301 31.1611 165.446 30.6555C165.598 30.1419 165.699 29.4196 165.747 28.4887L165.831 26.2858H171.128V31.438H172.079ZM167.119 28.597C167.087 29.3354 167.027 29.9373 166.939 30.4027C166.85 30.8682 166.69 31.2133 166.457 31.438H169.623V27.5618H167.155L167.119 28.597ZM173.603 26.2858H175.108V30.5231L178.659 26.2858H180.032V32.714H178.527V28.4767L174.988 32.714H173.603V26.2858ZM185.8 26.2135C186.426 26.2135 186.983 26.35 187.473 26.6228C187.97 26.8957 188.36 27.2809 188.641 27.7785C188.921 28.276 189.062 28.8498 189.062 29.4999C189.062 30.1499 188.921 30.7277 188.641 31.2333C188.36 31.7309 187.97 32.1161 187.473 32.389C186.983 32.6618 186.426 32.7983 185.8 32.7983C184.933 32.7983 184.247 32.5093 183.741 31.9315V35.0493H182.236V26.2858H183.669V27.1284C183.918 26.8235 184.223 26.5947 184.584 26.4423C184.953 26.2898 185.358 26.2135 185.8 26.2135ZM185.631 31.5102C186.185 31.5102 186.638 31.3256 186.991 30.9565C187.352 30.5873 187.533 30.1018 187.533 29.4999C187.533 28.898 187.352 28.4125 186.991 28.0433C186.638 27.6741 186.185 27.4896 185.631 27.4896C185.27 27.4896 184.945 27.5738 184.656 27.7423C184.367 27.9029 184.138 28.1356 183.97 28.4405C183.801 28.7455 183.717 29.0986 183.717 29.4999C183.717 29.9011 183.801 30.2542 183.97 30.5592C184.138 30.8642 184.367 31.1009 184.656 31.2694C184.945 31.4299 185.27 31.5102 185.631 31.5102ZM196.631 26.2858L193.621 33.2316C193.34 33.9298 192.999 34.4194 192.598 34.7002C192.197 34.9891 191.711 35.1336 191.141 35.1336C190.82 35.1336 190.503 35.0814 190.19 34.9771C189.877 34.8728 189.621 34.7283 189.42 34.5437L190.022 33.4363C190.166 33.5727 190.335 33.681 190.527 33.7613C190.728 33.8415 190.929 33.8817 191.129 33.8817C191.394 33.8817 191.611 33.8134 191.779 33.677C191.956 33.5406 192.116 33.3119 192.261 32.9909L192.369 32.7381L189.564 26.2858H191.129L193.152 31.0407L195.186 26.2858H196.631ZM203.732 26.2135C204.374 26.2135 204.947 26.354 205.453 26.6349C205.959 26.9077 206.356 27.2969 206.645 27.8025C206.934 28.3001 207.078 28.8659 207.078 29.4999C207.078 30.1339 206.934 30.7037 206.645 31.2093C206.356 31.7068 205.959 32.096 205.453 32.3769C204.947 32.6578 204.374 32.7983 203.732 32.7983C203.17 32.7983 202.656 32.6899 202.191 32.4732C201.725 32.2485 201.34 31.9355 201.035 31.5343C200.729 31.125 200.533 30.6595 200.444 30.1379H199.361V32.714H197.856V26.2858H199.361V28.7776H200.469C200.565 28.272 200.765 27.8266 201.071 27.4414C201.376 27.0482 201.757 26.7472 202.215 26.5386C202.672 26.3219 203.178 26.2135 203.732 26.2135ZM203.732 31.5222C204.085 31.5222 204.402 31.442 204.683 31.2815C204.963 31.113 205.184 30.8762 205.345 30.5712C205.505 30.2583 205.585 29.9011 205.585 29.4999C205.585 28.89 205.409 28.4044 205.056 28.0433C204.711 27.6741 204.269 27.4896 203.732 27.4896C203.194 27.4896 202.753 27.6741 202.407 28.0433C202.062 28.4044 201.89 28.89 201.89 29.4999C201.89 30.1098 202.062 30.5993 202.407 30.9685C202.761 31.3377 203.202 31.5222 203.732 31.5222ZM218.209 26.2858V32.714H208.735V26.2858H210.24V31.438H212.732V26.2858H214.237V31.438H216.704V26.2858H218.209ZM219.136 31.438V34.0382H217.728V32.714H216.656V31.438H219.136ZM220.412 26.2858H221.917V30.5231L225.468 26.2858H226.84V32.714H225.336V28.4767L221.796 32.714H220.412V26.2858ZM229.045 26.2858H230.55V30.5231L234.101 26.2858H235.473V32.714H233.969V28.4767L230.43 32.714H229.045V26.2858ZM232.163 25.5274C231.513 25.5274 231.015 25.3789 230.67 25.082C230.333 24.777 230.161 24.3356 230.153 23.7578H231.152C231.16 24.0467 231.248 24.2754 231.417 24.444C231.593 24.6125 231.838 24.6968 232.151 24.6968C232.456 24.6968 232.697 24.6125 232.873 24.444C233.058 24.2754 233.154 24.0467 233.162 23.7578H234.185C234.177 24.3356 234.001 24.777 233.656 25.082C233.311 25.3789 232.813 25.5274 232.163 25.5274ZM150.675 43.4116C151.076 43.524 151.385 43.7086 151.602 43.9654C151.826 44.2142 151.939 44.5151 151.939 44.8682C151.939 45.2615 151.806 45.6106 151.541 45.9155C151.277 46.2125 150.911 46.4452 150.446 46.6137C149.98 46.7822 149.451 46.8665 148.857 46.8665C148.359 46.8665 147.874 46.8103 147.4 46.698C146.927 46.5776 146.498 46.4091 146.112 46.1924L146.546 45.0729C146.859 45.2494 147.212 45.3859 147.605 45.4822C147.998 45.5785 148.391 45.6266 148.785 45.6266C149.29 45.6266 149.684 45.5504 149.964 45.3979C150.253 45.2374 150.398 45.0207 150.398 44.7478C150.398 44.4991 150.285 44.3065 150.061 44.17C149.844 44.0336 149.535 43.9654 149.134 43.9654H147.882V42.9542H149.013C149.391 42.9542 149.684 42.89 149.892 42.7616C150.109 42.6332 150.217 42.4526 150.217 42.2199C150.217 41.9872 150.089 41.8026 149.832 41.6661C149.575 41.5297 149.222 41.4615 148.773 41.4615C148.131 41.4615 147.453 41.618 146.738 41.931L146.353 40.8235C147.196 40.4303 148.046 40.2336 148.905 40.2336C149.451 40.2336 149.94 40.3099 150.374 40.4624C150.807 40.6068 151.144 40.8155 151.385 41.0883C151.634 41.3532 151.758 41.6581 151.758 42.0032C151.758 42.3162 151.662 42.5971 151.469 42.8459C151.277 43.0866 151.012 43.2752 150.675 43.4116ZM156.076 40.2577C157.023 40.2577 157.746 40.4864 158.243 40.9439C158.749 41.3933 159.001 42.0754 159.001 42.9903V46.7582H157.581V45.9757C157.396 46.2566 157.132 46.4733 156.787 46.6258C156.449 46.7702 156.04 46.8424 155.559 46.8424C155.077 46.8424 154.656 46.7622 154.295 46.6017C153.934 46.4331 153.653 46.2044 153.452 45.9155C153.259 45.6186 153.163 45.2855 153.163 44.9164C153.163 44.3386 153.376 43.8771 153.801 43.532C154.234 43.1789 154.913 43.0024 155.836 43.0024H157.497V42.906C157.497 42.4566 157.36 42.1115 157.087 41.8708C156.823 41.63 156.425 41.5097 155.896 41.5097C155.535 41.5097 155.177 41.5658 154.824 41.6782C154.479 41.7905 154.186 41.947 153.946 42.1477L153.356 41.0522C153.693 40.7954 154.098 40.5988 154.572 40.4624C155.045 40.3259 155.547 40.2577 156.076 40.2577ZM155.872 45.747C156.249 45.747 156.582 45.6627 156.871 45.4942C157.168 45.3176 157.376 45.0689 157.497 44.7478V44.0015H155.944C155.077 44.0015 154.644 44.2864 154.644 44.8562C154.644 45.129 154.752 45.3457 154.969 45.5062C155.185 45.6667 155.486 45.747 155.872 45.747ZM163.969 46.8424C163.303 46.8424 162.705 46.702 162.175 46.4211C161.646 46.1402 161.232 45.751 160.936 45.2534C160.639 44.7478 160.49 44.178 160.49 43.5441C160.49 42.9101 160.639 42.3443 160.936 41.8467C161.232 41.3492 161.642 40.9599 162.163 40.679C162.693 40.3982 163.295 40.2577 163.969 40.2577C164.603 40.2577 165.157 40.3861 165.63 40.6429C166.112 40.8997 166.473 41.2689 166.714 41.7504L165.558 42.4245C165.374 42.1276 165.141 41.9069 164.86 41.7625C164.587 41.61 164.286 41.5337 163.957 41.5337C163.395 41.5337 162.93 41.7183 162.561 42.0875C162.192 42.4486 162.007 42.9341 162.007 43.5441C162.007 44.154 162.188 44.6435 162.549 45.0127C162.918 45.3738 163.387 45.5544 163.957 45.5544C164.286 45.5544 164.587 45.4822 164.86 45.3377C165.141 45.1852 165.374 44.9605 165.558 44.6636L166.714 45.3377C166.465 45.8192 166.1 46.1924 165.618 46.4572C165.145 46.714 164.595 46.8424 163.969 46.8424ZM173.253 41.606H171.001V46.7582H169.497V41.606H167.234V40.3299H173.253V41.606ZM178.088 40.2577C178.714 40.2577 179.271 40.3941 179.761 40.667C180.259 40.9399 180.648 41.3251 180.929 41.8226C181.21 42.3202 181.35 42.894 181.35 43.5441C181.35 44.1941 181.21 44.7719 180.929 45.2775C180.648 45.7751 180.259 46.1603 179.761 46.4331C179.271 46.706 178.714 46.8424 178.088 46.8424C177.221 46.8424 176.535 46.5535 176.029 45.9757V49.0935H174.524V40.3299H175.957V41.1726C176.206 40.8676 176.511 40.6389 176.872 40.4864C177.241 40.334 177.646 40.2577 178.088 40.2577ZM177.919 45.5544C178.473 45.5544 178.926 45.3698 179.279 45.0006C179.641 44.6315 179.821 44.1459 179.821 43.5441C179.821 42.9422 179.641 42.4566 179.279 42.0875C178.926 41.7183 178.473 41.5337 177.919 41.5337C177.558 41.5337 177.233 41.618 176.944 41.7865C176.655 41.947 176.426 42.1798 176.258 42.4847C176.089 42.7897 176.005 43.1428 176.005 43.5441C176.005 43.9453 176.089 44.2984 176.258 44.6034C176.426 44.9083 176.655 45.1451 176.944 45.3136C177.233 45.4741 177.558 45.5544 177.919 45.5544ZM185.893 46.8424C185.243 46.8424 184.657 46.702 184.136 46.4211C183.614 46.1402 183.205 45.751 182.908 45.2534C182.619 44.7478 182.474 44.178 182.474 43.5441C182.474 42.9101 182.619 42.3443 182.908 41.8467C183.205 41.3492 183.614 40.9599 184.136 40.679C184.657 40.3982 185.243 40.2577 185.893 40.2577C186.551 40.2577 187.141 40.3982 187.663 40.679C188.184 40.9599 188.59 41.3492 188.878 41.8467C189.175 42.3443 189.324 42.9101 189.324 43.5441C189.324 44.178 189.175 44.7478 188.878 45.2534C188.59 45.751 188.184 46.1402 187.663 46.4211C187.141 46.702 186.551 46.8424 185.893 46.8424ZM185.893 45.5544C186.447 45.5544 186.904 45.3698 187.265 45.0006C187.627 44.6315 187.807 44.1459 187.807 43.5441C187.807 42.9422 187.627 42.4566 187.265 42.0875C186.904 41.7183 186.447 41.5337 185.893 41.5337C185.339 41.5337 184.882 41.7183 184.521 42.0875C184.168 42.4566 183.991 42.9422 183.991 43.5441C183.991 44.1459 184.168 44.6315 184.521 45.0006C184.882 45.3698 185.339 45.5544 185.893 45.5544ZM190.991 40.3299H192.496V44.5673L196.047 40.3299H197.419V46.7582H195.915V42.5208L192.375 46.7582H190.991V40.3299ZM194.109 39.5716C193.459 39.5716 192.961 39.4231 192.616 39.1262C192.279 38.8212 192.107 38.3798 192.099 37.802H193.098C193.106 38.0909 193.194 38.3196 193.363 38.4882C193.539 38.6567 193.784 38.7409 194.097 38.7409C194.402 38.7409 194.643 38.6567 194.819 38.4882C195.004 38.3196 195.1 38.0909 195.108 37.802H196.131C196.123 38.3798 195.947 38.8212 195.602 39.1262C195.257 39.4231 194.759 39.5716 194.109 39.5716ZM209.098 40.3299V46.7582H199.624V40.3299H201.129V45.4822H203.621V40.3299H205.126V45.4822H207.594V40.3299H209.098ZM210.025 45.4822V48.0823H208.617V46.7582H207.546V45.4822H210.025ZM211.301 40.3299H212.806V44.5673L216.357 40.3299H217.73V46.7582H216.225V42.5208L212.686 46.7582H211.301V40.3299ZM222.607 44.1821H221.439V46.7582H219.935V40.3299H221.439V42.9301H222.643L224.545 40.3299H226.158L223.823 43.4237L226.315 46.7582H224.545L222.607 44.1821ZM233.062 40.2336C233.736 40.2336 234.342 40.3781 234.88 40.667C235.417 40.9479 235.839 41.3411 236.144 41.8467C236.449 42.3443 236.601 42.9101 236.601 43.5441C236.601 44.178 236.449 44.7478 236.144 45.2534C235.839 45.759 235.417 46.1563 234.88 46.4452C234.342 46.7261 233.736 46.8665 233.062 46.8665C232.476 46.8665 231.946 46.7702 231.473 46.5776C230.999 46.385 230.598 46.1081 230.269 45.747L231.136 44.9043C231.641 45.4099 232.263 45.6627 233.002 45.6627C233.547 45.6627 234.013 45.5183 234.398 45.2294C234.791 44.9324 235.044 44.5392 235.156 44.0496H232.183V42.9662H235.144C235.024 42.4928 234.771 42.1196 234.386 41.8467C234.001 41.5658 233.539 41.4254 233.002 41.4254C232.263 41.4254 231.641 41.6822 231.136 42.1958L230.269 41.3532C230.59 40.984 230.987 40.7071 231.461 40.5226C231.942 40.3299 232.476 40.2336 233.062 40.2336ZM243.994 40.3299V46.7582H242.49V41.606H240.082L240.022 42.882C239.982 43.7326 239.901 44.4469 239.781 45.0247C239.669 45.5945 239.472 46.0479 239.191 46.385C238.918 46.714 238.541 46.8785 238.06 46.8785C237.835 46.8785 237.558 46.8344 237.229 46.7461L237.301 45.4822C237.414 45.5062 237.51 45.5183 237.59 45.5183C237.895 45.5183 238.124 45.3979 238.276 45.1571C238.429 44.9083 238.525 44.6154 238.565 44.2784C238.613 43.9333 238.653 43.4437 238.686 42.8097L238.794 40.3299H243.994ZM246.201 40.3299H247.706V44.5673L251.257 40.3299H252.629V46.7582H251.125V42.5208L247.586 46.7582H246.201V40.3299ZM259.926 41.606H257.675V46.7582H256.171V41.606H253.907V40.3299H259.926V41.606ZM261.198 40.3299H262.703V42.9422H265.941V40.3299H267.446V46.7582H265.941V44.2182H262.703V46.7582H261.198V40.3299ZM272.508 46.8424C271.858 46.8424 271.272 46.702 270.75 46.4211C270.229 46.1402 269.819 45.751 269.523 45.2534C269.234 44.7478 269.089 44.178 269.089 43.5441C269.089 42.9101 269.234 42.3443 269.523 41.8467C269.819 41.3492 270.229 40.9599 270.75 40.679C271.272 40.3982 271.858 40.2577 272.508 40.2577C273.166 40.2577 273.756 40.3982 274.278 40.679C274.799 40.9599 275.204 41.3492 275.493 41.8467C275.79 42.3443 275.939 42.9101 275.939 43.5441C275.939 44.178 275.79 44.7478 275.493 45.2534C275.204 45.751 274.799 46.1402 274.278 46.4211C273.756 46.702 273.166 46.8424 272.508 46.8424ZM272.508 45.5544C273.062 45.5544 273.519 45.3698 273.88 45.0006C274.241 44.6315 274.422 44.1459 274.422 43.5441C274.422 42.9422 274.241 42.4566 273.88 42.0875C273.519 41.7183 273.062 41.5337 272.508 41.5337C271.954 41.5337 271.497 41.7183 271.136 42.0875C270.783 42.4566 270.606 42.9422 270.606 43.5441C270.606 44.1459 270.783 44.6315 271.136 45.0006C271.497 45.3698 271.954 45.5544 272.508 45.5544ZM277.606 40.3299H279.111V44.5673L282.662 40.3299H284.034V46.7582H282.529V42.5208L278.99 46.7582H277.606V40.3299ZM280.724 39.5716C280.074 39.5716 279.576 39.4231 279.231 39.1262C278.894 38.8212 278.721 38.3798 278.713 37.802H279.713C279.721 38.0909 279.809 38.3196 279.977 38.4882C280.154 38.6567 280.399 38.7409 280.712 38.7409C281.017 38.7409 281.257 38.6567 281.434 38.4882C281.619 38.3196 281.715 38.0909 281.723 37.802H282.746C282.738 38.3798 282.562 38.8212 282.216 39.1262C281.871 39.4231 281.374 39.5716 280.724 39.5716ZM146.835 54.3741H148.339V56.9863H151.578V54.3741H153.082V60.8023H151.578V58.2624H148.339V60.8023H146.835V54.3741ZM161.298 57.6244C161.298 57.7287 161.29 57.8771 161.274 58.0698H156.23C156.319 58.5432 156.547 58.9204 156.917 59.2013C157.294 59.4742 157.759 59.6106 158.313 59.6106C159.019 59.6106 159.601 59.3779 160.058 58.9124L160.865 59.8393C160.576 60.1844 160.211 60.4452 159.769 60.6218C159.328 60.7983 158.831 60.8866 158.277 60.8866C157.571 60.8866 156.949 60.7462 156.411 60.4653C155.873 60.1844 155.456 59.7952 155.159 59.2976C154.87 58.792 154.726 58.2222 154.726 57.5882C154.726 56.9623 154.866 56.4005 155.147 55.9029C155.436 55.3973 155.833 55.0041 156.339 54.7232C156.844 54.4423 157.414 54.3019 158.048 54.3019C158.674 54.3019 159.232 54.4423 159.721 54.7232C160.219 54.9961 160.604 55.3853 160.877 55.8909C161.158 56.3885 161.298 56.9663 161.298 57.6244ZM158.048 55.5057C157.567 55.5057 157.157 55.6501 156.82 55.939C156.491 56.2199 156.291 56.5971 156.218 57.0706H159.866C159.802 56.6051 159.605 56.228 159.276 55.939C158.947 55.6501 158.538 55.5057 158.048 55.5057ZM169.904 59.5263V62.2349H168.496V60.8023H163.536V62.2349H162.14V59.5263H162.44C162.85 59.5103 163.127 59.2495 163.271 58.7439C163.424 58.2303 163.524 57.508 163.572 56.5771L163.656 54.3741H168.953V59.5263H169.904ZM164.944 56.6854C164.912 57.4237 164.852 58.0256 164.764 58.4911C164.676 58.9565 164.515 59.3016 164.282 59.5263H167.448V55.6501H164.98L164.944 56.6854ZM176.087 57.4558C176.882 57.6966 177.279 58.2102 177.279 58.9967C177.279 59.5745 177.062 60.0199 176.629 60.3329C176.196 60.6459 175.554 60.8023 174.703 60.8023H171.429V54.3741H174.57C175.357 54.3741 175.971 54.5186 176.412 54.8075C176.854 55.0964 177.074 55.5057 177.074 56.0354C177.074 56.3644 176.986 56.6493 176.809 56.89C176.641 57.1308 176.4 57.3194 176.087 57.4558ZM172.861 57.0586H174.438C175.216 57.0586 175.606 56.7897 175.606 56.252C175.606 55.7304 175.216 55.4696 174.438 55.4696H172.861V57.0586ZM174.582 59.7069C175.409 59.7069 175.822 59.4381 175.822 58.9004C175.822 58.6195 175.726 58.4108 175.533 58.2744C175.341 58.1299 175.04 58.0577 174.631 58.0577H172.861V59.7069H174.582ZM179.062 54.3741H180.567V58.6115L184.118 54.3741H185.49V60.8023H183.986V56.565L180.447 60.8023H179.062V54.3741ZM193.798 58.2262H192.715V60.8023H191.222V58.2262H190.139L188.574 60.8023H186.792L188.899 57.4799L186.949 54.3741H188.55L190.115 56.9743H191.222V54.3741H192.715V56.9743H193.81L195.387 54.3741H196.988L195.038 57.4799L197.157 60.8023H195.363L193.798 58.2262ZM198.456 54.3741H199.961V58.6115L203.511 54.3741H204.883V60.8023H203.378V56.565L199.84 60.8023H198.456V54.3741ZM213.408 60.8023V56.5409L211.241 60.1282H210.591L208.46 56.5289V60.8023H207.088V54.3741H208.665L210.952 58.3948L213.348 54.3741H214.756L214.768 60.8023H213.408ZM219.832 60.8866C219.182 60.8866 218.596 60.7462 218.075 60.4653C217.553 60.1844 217.144 59.7952 216.847 59.2976C216.558 58.792 216.413 58.2222 216.413 57.5882C216.413 56.9542 216.558 56.3885 216.847 55.8909C217.144 55.3933 217.553 55.0041 218.075 54.7232C218.596 54.4423 219.182 54.3019 219.832 54.3019C220.49 54.3019 221.08 54.4423 221.602 54.7232C222.123 55.0041 222.529 55.3933 222.818 55.8909C223.115 56.3885 223.263 56.9542 223.263 57.5882C223.263 58.2222 223.115 58.792 222.818 59.2976C222.529 59.7952 222.123 60.1844 221.602 60.4653C221.08 60.7462 220.49 60.8866 219.832 60.8866ZM219.832 59.5986C220.386 59.5986 220.843 59.414 221.205 59.0448C221.566 58.6757 221.746 58.1901 221.746 57.5882C221.746 56.9863 221.566 56.5008 221.205 56.1317C220.843 55.7625 220.386 55.5779 219.832 55.5779C219.278 55.5779 218.821 55.7625 218.46 56.1317C218.107 56.5008 217.93 56.9863 217.93 57.5882C217.93 58.1901 218.107 58.6757 218.46 59.0448C218.821 59.414 219.278 59.5986 219.832 59.5986ZM227.855 60.8866C227.189 60.8866 226.591 60.7462 226.062 60.4653C225.532 60.1844 225.119 59.7952 224.822 59.2976C224.525 58.792 224.377 58.2222 224.377 57.5882C224.377 56.9542 224.525 56.3885 224.822 55.8909C225.119 55.3933 225.528 55.0041 226.05 54.7232C226.579 54.4423 227.181 54.3019 227.855 54.3019C228.489 54.3019 229.043 54.4303 229.517 54.6871C229.998 54.9439 230.359 55.3131 230.6 55.7946L229.444 56.4687C229.26 56.1718 229.027 55.9511 228.746 55.8066C228.473 55.6542 228.172 55.5779 227.843 55.5779C227.282 55.5779 226.816 55.7625 226.447 56.1317C226.078 56.4928 225.893 56.9783 225.893 57.5882C225.893 58.1982 226.074 58.6877 226.435 59.0569C226.804 59.418 227.274 59.5986 227.843 59.5986C228.172 59.5986 228.473 59.5263 228.746 59.3819C229.027 59.2294 229.26 59.0047 229.444 58.7078L230.6 59.3819C230.351 59.8634 229.986 60.2366 229.505 60.5014C229.031 60.7582 228.481 60.8866 227.855 60.8866ZM237.139 55.6501H234.888V60.8023H233.383V55.6501H231.12V54.3741H237.139V55.6501ZM238.411 54.3741H239.915V58.6115L243.467 54.3741H244.839V60.8023H243.334V56.565L239.795 60.8023H238.411V54.3741ZM250.551 54.3741H252.056V56.9863H255.294V54.3741H256.799V60.8023H255.294V58.2624H252.056V60.8023H250.551V54.3741ZM261.393 54.3019C262.34 54.3019 263.062 54.5306 263.56 54.9881C264.065 55.4375 264.318 56.1196 264.318 57.0345V60.8023H262.898V60.0199C262.713 60.3008 262.448 60.5175 262.103 60.6699C261.766 60.8144 261.357 60.8866 260.875 60.8866C260.394 60.8866 259.973 60.8064 259.611 60.6459C259.25 60.4773 258.969 60.2486 258.769 59.9597C258.576 59.6628 258.48 59.3297 258.48 58.9606C258.48 58.3827 258.692 57.9213 259.118 57.5762C259.551 57.2231 260.229 57.0465 261.152 57.0465H262.813V56.9502C262.813 56.5008 262.677 56.1557 262.404 55.915C262.139 55.6742 261.742 55.5538 261.212 55.5538C260.851 55.5538 260.494 55.61 260.141 55.7224C259.796 55.8347 259.503 55.9912 259.262 56.1918L258.672 55.0964C259.009 54.8396 259.415 54.643 259.888 54.5065C260.362 54.3701 260.863 54.3019 261.393 54.3019ZM261.188 59.7912C261.566 59.7912 261.899 59.7069 262.187 59.5384C262.484 59.3618 262.693 59.113 262.813 58.792V58.0457H261.261C260.394 58.0457 259.96 58.3306 259.96 58.9004C259.96 59.1732 260.069 59.3899 260.285 59.5504C260.502 59.7109 260.803 59.7912 261.188 59.7912ZM270.048 52.3758H276.609V53.6639H271.589V55.7344H274.081C275.092 55.7344 275.858 55.9471 276.38 56.3724C276.91 56.7897 277.175 57.3956 277.175 58.1901C277.175 59.0248 276.886 59.6708 276.308 60.1282C275.73 60.5776 274.908 60.8023 273.84 60.8023H270.048V52.3758ZM273.756 59.5986C274.358 59.5986 274.815 59.4822 275.128 59.2495C275.441 59.0167 275.598 58.6797 275.598 58.2383C275.598 57.3716 274.984 56.9382 273.756 56.9382H271.589V59.5986H273.756ZM281.296 54.3019C282.243 54.3019 282.965 54.5306 283.462 54.9881C283.968 55.4375 284.221 56.1196 284.221 57.0345V60.8023H282.8V60.0199C282.616 60.3008 282.351 60.5175 282.006 60.6699C281.669 60.8144 281.259 60.8866 280.778 60.8866C280.296 60.8866 279.875 60.8064 279.514 60.6459C279.153 60.4773 278.872 60.2486 278.671 59.9597C278.479 59.6628 278.382 59.3297 278.382 58.9606C278.382 58.3827 278.595 57.9213 279.02 57.5762C279.454 57.2231 280.132 57.0465 281.055 57.0465H282.716V56.9502C282.716 56.5008 282.58 56.1557 282.307 55.915C282.042 55.6742 281.645 55.5538 281.115 55.5538C280.754 55.5538 280.397 55.61 280.044 55.7224C279.699 55.8347 279.406 55.9912 279.165 56.1918L278.575 55.0964C278.912 54.8396 279.317 54.643 279.791 54.5065C280.264 54.3701 280.766 54.3019 281.296 54.3019ZM281.091 59.7912C281.468 59.7912 281.801 59.7069 282.09 59.5384C282.387 59.3618 282.596 59.113 282.716 58.792V58.0457H281.163C280.296 58.0457 279.863 58.3306 279.863 58.9004C279.863 59.1732 279.971 59.3899 280.188 59.5504C280.405 59.7109 280.706 59.7912 281.091 59.7912ZM292.09 54.3741V60.8023H290.585V55.6501H288.177L288.117 56.9262C288.077 57.7768 287.997 58.4911 287.876 59.0689C287.764 59.6387 287.567 60.0921 287.286 60.4292C287.014 60.7582 286.636 60.9227 286.155 60.9227C285.93 60.9227 285.653 60.8786 285.324 60.7903L285.396 59.5263C285.509 59.5504 285.605 59.5624 285.685 59.5624C285.99 59.5624 286.219 59.4421 286.372 59.2013C286.524 58.9525 286.62 58.6596 286.66 58.3225C286.709 57.9775 286.749 57.4879 286.781 56.8539L286.889 54.3741H292.09ZM294.297 54.3741H295.801V58.6115L299.352 54.3741H300.725V60.8023H299.22V56.565L295.681 60.8023H294.297V54.3741Z" fill="white"/>
<path opacity="0.2" d="M134.887 18.7686V64.7" stroke="white" stroke-width="1.40285"/>
<path d="M5.10591 64.7034H3.19873V59.3232H5.12166C5.66282 59.3232 6.12867 59.431 6.51922 59.6465C6.90976 59.8601 7.21011 60.1675 7.42027 60.5686C7.63218 60.9696 7.73813 61.4493 7.73813 62.0081C7.73813 62.5685 7.63218 63.0502 7.42027 63.4528C7.21011 63.8557 6.908 64.1649 6.51396 64.3802C6.12167 64.5956 5.65231 64.7034 5.10591 64.7034ZM4.33621 63.7287H5.05862C5.39488 63.7287 5.67771 63.6691 5.90713 63.5501C6.1383 63.4294 6.31168 63.2428 6.42727 62.9906C6.54462 62.7366 6.60328 62.4091 6.60328 62.0081C6.60328 61.6104 6.54462 61.2856 6.42727 61.0334C6.31168 60.7812 6.13918 60.5956 5.90976 60.4765C5.68034 60.3575 5.39749 60.2979 5.06125 60.2979H4.33621V63.7287Z" fill="white"/>
<path d="M14.6467 64.7034V59.3232H18.272V60.2612H15.7842V61.543H18.0854V62.481H15.7842V63.7656H18.2825V64.7034H14.6467Z" fill="white"/>
<path d="M26.2143 59.3232L27.5147 63.4109H27.5645L28.8676 59.3232H30.1286L28.2739 64.7034H26.8079L24.9507 59.3232H26.2143Z" fill="white"/>
<path d="M36.842 64.7034V59.3232H40.4672V60.2612H37.9794V61.543H40.2807V62.481H37.9794V63.7656H40.4777V64.7034H36.842Z" fill="white"/>
<path d="M47.4377 64.7034V59.3232H48.5751V63.7656H50.8816V64.7034H47.4377Z" fill="white"/>
<path d="M62.4352 62.012C62.4352 62.5987 62.324 63.0978 62.1015 63.5093C61.8808 63.921 61.5797 64.2354 61.1979 64.4525C60.8179 64.668 60.3905 64.7757 59.9161 64.7757C59.4378 64.7757 59.0088 64.667 58.6288 64.4499C58.2488 64.2328 57.9483 63.9184 57.7278 63.5067C57.5071 63.0952 57.3967 62.5971 57.3967 62.012C57.3967 61.4254 57.5071 60.9262 57.7278 60.5147C57.9483 60.1032 58.2488 59.7896 58.6288 59.5742C59.0088 59.3571 59.4378 59.2485 59.9161 59.2485C60.3905 59.2485 60.8179 59.3571 61.1979 59.5742C61.5797 59.7896 61.8808 60.1032 62.1015 60.5147C62.324 60.9262 62.4352 61.4254 62.4352 62.012ZM61.282 62.012C61.282 61.632 61.225 61.3116 61.1112 61.0506C60.9991 60.7896 60.8406 60.5918 60.6357 60.4569C60.4309 60.3221 60.1909 60.2547 59.9161 60.2547C59.641 60.2547 59.401 60.3221 59.1962 60.4569C58.9913 60.5918 58.8318 60.7896 58.7181 61.0506C58.6059 61.3116 58.55 61.632 58.55 62.012C58.55 62.392 58.6059 62.7126 58.7181 62.9735C58.8318 63.2345 58.9913 63.4323 59.1962 63.5673C59.401 63.7021 59.641 63.7696 59.9161 63.7696C60.1909 63.7696 60.4309 63.7021 60.6357 63.5673C60.8406 63.4323 60.9991 63.2345 61.1112 62.9735C61.225 62.7126 61.282 62.392 61.282 62.012Z" fill="white"/>
<path d="M69.3438 64.7034V59.3232H71.4664C71.8745 59.3232 72.2222 59.4013 72.5093 59.5572C72.7966 59.7113 73.0155 59.9257 73.1662 60.2008C73.3184 60.4739 73.3947 60.7893 73.3947 61.1464C73.3947 61.5037 73.3176 61.8189 73.1634 62.0921C73.0093 62.3654 72.786 62.5781 72.4937 62.7306C72.2029 62.8828 71.8508 62.9591 71.4375 62.9591H70.0847V62.0474H71.2536C71.4726 62.0474 71.653 62.0099 71.7949 61.9345C71.9383 61.8574 72.0452 61.7515 72.1153 61.6167C72.1871 61.48 72.223 61.3233 72.223 61.1464C72.223 60.9678 72.1871 60.8119 72.1153 60.6789C72.0452 60.5441 71.9383 60.4398 71.7949 60.3663C71.6512 60.2909 71.469 60.2534 71.2483 60.2534H70.4813V64.7034H69.3438Z" fill="white"/>
<path d="M80.1997 59.3232H81.6025L83.084 62.938H83.1472L84.6286 59.3232H86.0315V64.7034H84.9282V61.2015H84.8834L83.4913 64.6771H82.7399L81.3477 61.1885H81.303V64.7034H80.1997V59.3232Z" fill="white"/>
<path d="M93.0344 64.7034V59.3232H96.6596V60.2612H94.1718V61.543H96.473V62.481H94.1718V63.7656H96.6701V64.7034H93.0344Z" fill="white"/>
<path d="M108.13 59.3232V64.7034H107.147L104.807 61.3171H104.767V64.7034H103.63V59.3232H104.628L106.95 62.7069H106.998V59.3232H108.13Z" fill="white"/>
<path d="M114.931 60.2612V59.3232H119.35V60.2612H117.702V64.7034H116.578V60.2612H114.931Z" fill="white"/>
<path d="M85.4082 2.13294C85.3671 2.15346 85.282 2.18278 85.2176 2.19157C85.1532 2.2033 85.0212 2.23555 84.9245 2.26487C84.7104 2.3323 84.4526 2.40266 84.2355 2.4525C84.1476 2.47302 84.0098 2.51406 83.9275 2.54045C83.8485 2.56683 83.7078 2.60788 83.6198 2.6284C83.3912 2.68704 83.2299 2.73102 82.9603 2.80724C82.7288 2.87174 82.6172 2.90398 82.3004 2.98608C82.2125 3.00953 82.0601 3.05349 81.9633 3.08283C81.8666 3.11507 81.7348 3.15024 81.6702 3.15903C81.6086 3.17076 81.5208 3.19717 81.4798 3.21767C81.4387 3.23819 81.339 3.26458 81.2599 3.27629C81.1777 3.28803 81.081 3.31441 81.0398 3.33494C80.9989 3.35839 80.8785 3.39065 80.776 3.40823C80.6735 3.42582 80.5533 3.461 80.5122 3.48154C80.4711 3.50206 80.3832 3.52845 80.3216 3.54016C80.2572 3.55188 80.1252 3.58414 80.0285 3.61345C79.8116 3.68089 79.5536 3.75125 79.3395 3.80108C79.2514 3.82161 79.1138 3.86266 79.0317 3.88904C78.9525 3.91542 78.8118 3.95647 78.724 3.977C78.4952 4.03562 78.3339 4.0796 78.0643 4.15582C77.771 4.23792 77.6127 4.2819 77.39 4.33759C77.2933 4.36105 77.1731 4.39917 77.1203 4.41969C77.0704 4.44314 76.9474 4.47539 76.8446 4.49296C76.7421 4.51056 76.6247 4.54282 76.5836 4.56627C76.5427 4.5868 76.4458 4.61318 76.3637 4.6249C76.2847 4.63663 76.185 4.66302 76.1438 4.68354C76.1029 4.70407 75.9855 4.73924 75.883 4.75683C75.7805 4.77441 75.6573 4.80667 75.6076 4.83012C75.5548 4.85065 75.4346 4.88877 75.3377 4.9122C75.115 4.96792 74.9565 5.01189 74.6634 5.09397C74.3937 5.17021 74.2324 5.21417 74.0039 5.27281C73.9158 5.29334 73.778 5.33439 73.6959 5.36077C73.6167 5.38715 73.476 5.4282 73.388 5.44873C73.1769 5.49562 72.9103 5.56893 72.7285 5.62755C72.6493 5.65393 72.5086 5.69205 72.4207 5.71258C72.0893 5.79173 71.7257 5.89435 71.6702 5.92073C71.6407 5.93831 71.55 5.96176 71.4677 5.9735C71.3887 5.98522 71.289 6.01162 71.248 6.03214C71.2069 6.05267 71.0897 6.08784 70.987 6.10541C70.8845 6.12301 70.7613 6.15527 70.7113 6.17872C70.6586 6.19925 70.5384 6.23735 70.4417 6.2608C70.2188 6.31652 70.0605 6.3605 69.7674 6.44257C69.4977 6.51879 69.3364 6.56277 69.1077 6.62142C69.0198 6.64194 68.882 6.68297 68.7999 6.70935C68.7207 6.73576 68.58 6.77681 68.4922 6.79731C68.2195 6.86181 67.985 6.92339 67.8325 6.97322C67.7533 6.99961 67.6126 7.04066 67.5245 7.06118C67.3018 7.11102 67.0438 7.18138 66.8358 7.24881C66.7391 7.27812 66.607 7.31329 66.5426 7.32503C66.478 7.33675 66.393 7.36022 66.352 7.38367C66.3109 7.40418 66.1935 7.43642 66.091 7.45402C65.9883 7.47161 65.8653 7.50387 65.8154 7.52733C65.7626 7.54783 65.6424 7.58595 65.5457 7.60941C65.449 7.63286 65.2438 7.68855 65.0913 7.7296C64.939 7.77358 64.7396 7.82635 64.6515 7.84687C64.5636 7.8674 64.4258 7.90843 64.3437 7.93483C64.1912 7.98467 63.9567 8.04622 63.684 8.11074C63.5962 8.13125 63.4583 8.1723 63.3763 8.19868C63.297 8.22506 63.1564 8.26611 63.0683 8.28664C62.8398 8.34526 62.6785 8.38926 62.4088 8.46546C62.1157 8.54756 61.9574 8.59154 61.7345 8.64723C61.6376 8.67068 61.5174 8.7088 61.4677 8.72933C61.4149 8.75278 61.324 8.77917 61.2624 8.78795C61.198 8.79969 61.069 8.83193 60.9723 8.86419C60.8754 8.89351 60.7171 8.94041 60.6204 8.96387C60.5237 8.99025 60.3536 9.03716 60.2392 9.06647C60.1279 9.09871 59.9491 9.14564 59.8436 9.16909C59.738 9.19547 59.5825 9.24236 59.4975 9.27462C59.4096 9.30396 59.3159 9.33034 59.2866 9.33034C59.2571 9.33034 59.1283 9.36258 59.0021 9.40068C58.7792 9.46813 58.6737 9.49744 58.3483 9.58247C58.2604 9.60593 58.1256 9.64403 58.0493 9.67041C57.9731 9.69679 57.8353 9.73491 57.7416 9.75544C57.4278 9.82873 57.1902 9.89323 57.0963 9.93426C57.0466 9.95478 56.9234 9.98702 56.8209 10.0046C56.7183 10.0222 56.601 10.0574 56.56 10.0779C56.5189 10.0984 56.431 10.1248 56.3694 10.1366C56.305 10.1483 56.173 10.1805 56.0763 10.2098C55.8592 10.2773 55.6012 10.3476 55.3871 10.3975C55.2993 10.418 55.1614 10.459 55.0794 10.4854C55.0003 10.5118 54.8597 10.5529 54.7716 10.5734C54.5431 10.632 54.3818 10.676 54.1119 10.7522C53.8804 10.8167 53.7689 10.849 53.4523 10.9311C53.3644 10.9545 53.2119 10.9985 53.1152 11.0278C53.0185 11.0601 52.8865 11.0952 52.8221 11.104C52.7605 11.1158 52.6724 11.1421 52.6315 11.1627C52.5903 11.1832 52.4906 11.2096 52.4116 11.2213C52.3295 11.233 52.2386 11.2565 52.2063 11.2741C52.174 11.2916 52.048 11.3298 51.9279 11.3562C51.8077 11.3855 51.6494 11.4265 51.5762 11.45C51.5027 11.4734 51.3884 11.5086 51.321 11.5262C51.2505 11.5438 51.1392 11.5731 51.0718 11.5907C51.0013 11.6083 50.84 11.6552 50.7112 11.6904C50.4414 11.7666 50.2803 11.8106 50.0516 11.8692C49.9637 11.8897 49.8259 11.9308 49.7436 11.9572C49.6645 11.9835 49.5237 12.0246 49.4358 12.0451C49.2218 12.095 48.9551 12.1653 48.7764 12.2239C48.6971 12.2503 48.5565 12.2884 48.4684 12.309C48.3805 12.3324 48.1811 12.3823 48.0286 12.4262C47.8761 12.4673 47.6709 12.523 47.5742 12.5464C47.4775 12.5699 47.3573 12.608 47.3045 12.6285C47.2548 12.652 47.1316 12.6842 47.0319 12.7018C46.9321 12.7194 46.809 12.7517 46.7592 12.7751C46.7064 12.7956 46.5863 12.8337 46.4894 12.8572C46.2667 12.9129 46.1084 12.9569 45.8152 13.039C45.5456 13.1152 45.3843 13.1592 45.1556 13.2178C45.0675 13.2383 44.9299 13.2794 44.8476 13.3058C44.7685 13.3321 44.6279 13.3732 44.5398 13.3937C44.3083 13.4465 44.0533 13.5168 43.8509 13.5814C43.7542 13.6136 43.6486 13.64 43.6163 13.64C43.584 13.6429 43.505 13.6634 43.4404 13.6869C43.376 13.7103 43.2235 13.7572 43.1033 13.7866C42.9831 13.8159 42.7985 13.8628 42.693 13.8892C42.5875 13.9156 42.4613 13.9566 42.4085 13.9771C42.3586 14.0006 42.2354 14.0328 42.1359 14.0504C42.0361 14.068 41.913 14.1003 41.8632 14.1237C41.8104 14.1442 41.6903 14.1823 41.5936 14.2058C41.4968 14.2292 41.2916 14.2849 41.1391 14.326C40.9866 14.37 40.7872 14.4227 40.6993 14.4433C40.6113 14.4638 40.4736 14.5019 40.3914 14.5283C40.3123 14.5547 40.1657 14.5957 40.069 14.6221C39.9723 14.6485 39.8023 14.6954 39.688 14.7247C39.5766 14.7569 39.4035 14.8009 39.3068 14.8244C39.2099 14.8508 39.0662 14.8918 38.9841 14.9182C38.9051 14.9446 38.7645 14.9856 38.6764 15.0062C38.4537 15.056 38.1957 15.1264 37.9874 15.1938C37.8907 15.2231 37.7587 15.2583 37.6943 15.27C37.6297 15.2817 37.5448 15.3052 37.5037 15.3286C37.4626 15.3492 37.3454 15.3814 37.2429 15.399C37.1401 15.4166 37.0172 15.4489 36.9672 15.4723C36.9144 15.4928 36.7943 15.5309 36.6976 15.5544C36.6008 15.5779 36.3956 15.6335 36.2429 15.6746C36.0906 15.7186 35.8912 15.7713 35.8033 15.7919C35.7155 15.8124 35.5776 15.8505 35.4956 15.8769C35.4163 15.9033 35.2699 15.9443 35.1732 15.9707C35.0763 15.9971 34.9061 16.044 34.7918 16.0733C34.6804 16.1056 34.5016 16.1525 34.3961 16.1788C34.2906 16.2023 34.1323 16.2492 34.0444 16.2785C33.9563 16.3078 33.8303 16.343 33.7659 16.3518C33.7043 16.3635 33.6163 16.3899 33.5753 16.4105C33.5342 16.431 33.4345 16.4574 33.3552 16.4691C33.2732 16.4808 33.15 16.516 33.0768 16.5423C33.0035 16.5717 32.8862 16.6039 32.8129 16.6158C32.7397 16.6274 32.6488 16.6537 32.6077 16.6744C32.5668 16.6978 32.4466 16.73 32.3439 16.7476C32.2413 16.7652 32.1212 16.7974 32.08 16.8209C32.0389 16.8415 31.9422 16.8678 31.8601 16.8795C31.7809 16.8913 31.6812 16.9176 31.6402 16.9382C31.5991 16.9587 31.5112 16.985 31.4496 16.9968C31.3852 17.0056 31.2532 17.0408 31.1565 17.0731C31.0598 17.1024 30.9073 17.1463 30.8195 17.1698C30.5027 17.2519 30.3913 17.2842 30.1598 17.3486C29.8899 17.4248 29.7288 17.4688 29.5001 17.5274C29.4122 17.548 29.2744 17.589 29.1923 17.6154C29.1131 17.6417 28.9724 17.6829 28.8844 17.7033C28.6791 17.7503 28.4183 17.8205 28.1954 17.891C28.0987 17.9232 27.9669 17.9556 27.9023 17.9672C27.8379 17.9789 27.7528 18.0023 27.7119 18.023C27.6708 18.0434 27.5534 18.0757 27.4509 18.0932C27.3481 18.1139 27.2221 18.146 27.1722 18.1666C27.0813 18.2046 26.8528 18.2692 26.539 18.3424C26.4511 18.3629 26.3133 18.404 26.2312 18.4303C26.1522 18.4568 26.0113 18.4979 25.9233 18.5184C25.6947 18.577 25.5334 18.621 25.2638 18.6972C25.0292 18.7646 24.9061 18.7969 24.6041 18.876C24.5162 18.8995 24.3812 18.9376 24.305 18.9641C24.2287 18.9904 24.0911 19.0285 23.9972 19.049C23.7773 19.0989 23.5223 19.1692 23.2996 19.2396C23.2027 19.2689 23.0709 19.3012 23.0063 19.3128C22.9447 19.3246 22.8568 19.351 22.8157 19.3714C22.7747 19.3921 22.6839 19.4184 22.6104 19.4302C22.5372 19.4418 22.4317 19.4712 22.3759 19.4946C22.3203 19.5181 22.1883 19.5532 22.0828 19.5767C21.9772 19.5972 21.8338 19.6353 21.7604 19.6588C21.6314 19.6999 21.517 19.7322 21.2032 19.8143C21.1153 19.8347 20.9775 19.8757 20.8954 19.9022C20.8164 19.9285 20.6755 19.9696 20.5877 19.9901C20.3765 20.037 20.1098 20.1103 19.9281 20.169C19.8488 20.1953 19.7081 20.2334 19.6202 20.2539C19.5322 20.2745 19.3329 20.3272 19.1804 20.3713C19.0279 20.4122 18.8227 20.468 18.7259 20.4915C18.6292 20.5149 18.509 20.5531 18.4562 20.5735C18.4065 20.597 18.2833 20.6292 18.1807 20.6468C18.078 20.6644 17.9608 20.6965 17.9197 20.7172C17.8787 20.7407 17.7937 20.7639 17.7292 20.7758C17.6647 20.7874 17.5328 20.8227 17.4361 20.852C17.2278 20.9194 16.9699 20.9898 16.747 21.0396C16.6591 21.0603 16.5213 21.1012 16.4392 21.1277C16.3602 21.154 16.2135 21.1951 16.1168 21.2216C16.02 21.245 15.8499 21.289 15.7357 21.3211C15.6242 21.3506 15.4512 21.3973 15.3545 21.4238C15.2577 21.4501 15.1141 21.4912 15.032 21.5175C14.9529 21.544 14.8121 21.5821 14.7241 21.6026C14.6362 21.623 14.4368 21.6758 14.2844 21.7199C14.1319 21.7609 13.9267 21.8166 13.83 21.8401C13.7332 21.8634 13.613 21.9015 13.5602 21.9222C13.5104 21.9456 13.3873 21.9777 13.2876 21.9954C13.1879 22.0131 13.0648 22.0452 13.0149 22.0686C12.9622 22.0891 12.8419 22.1272 12.7452 22.1507C12.6485 22.1742 12.4432 22.2299 12.2908 22.2709C12.1383 22.3148 11.939 22.3676 11.851 22.3882C11.7631 22.4087 11.6253 22.4498 11.5432 22.4761C11.3907 22.5261 11.1562 22.5877 10.8836 22.6521C10.7956 22.6727 10.6578 22.7137 10.5757 22.7401C10.4966 22.7664 10.3558 22.8076 10.2679 22.828C10.0392 22.8868 9.87796 22.9307 9.60825 23.007C9.31507 23.089 9.15675 23.133 8.93395 23.1886C8.8372 23.212 8.71701 23.2501 8.66424 23.2708C8.6144 23.2941 8.49126 23.3264 8.38865 23.344C8.28603 23.3615 8.16876 23.3968 8.12771 23.4173C8.08668 23.4377 7.98699 23.4642 7.90784 23.4759C7.82574 23.4877 7.72902 23.514 7.68797 23.5344C7.64692 23.5579 7.52672 23.5902 7.42412 23.6079C7.3215 23.6253 7.2013 23.6606 7.16027 23.6811C7.1192 23.7016 7.03126 23.7281 6.96969 23.7397C6.90519 23.7515 6.77327 23.7836 6.67653 23.8129C6.45956 23.8805 6.20157 23.9508 5.98756 24.0007C5.8996 24.0212 5.76181 24.0623 5.67973 24.0886C5.60056 24.1151 5.45984 24.1562 5.3719 24.1767C5.14322 24.2352 4.98198 24.2794 4.71225 24.3554C4.41909 24.4377 4.26077 24.4816 4.03797 24.5372C3.9412 24.5607 3.821 24.5988 3.76824 24.6193C3.7184 24.6427 3.59527 24.675 3.49265 24.6927C3.39005 24.7101 3.27278 24.7424 3.23173 24.7659C3.19068 24.7864 3.09394 24.8129 3.01186 24.8245C2.93269 24.8363 2.83304 24.8626 2.79197 24.8831C2.75094 24.9037 2.64246 24.9359 2.54864 24.9535C2.45483 24.9712 2.34342 25.0033 2.29944 25.0267C2.25547 25.0502 2.13526 25.0853 2.03266 25.1002C1.8245 25.1353 1.79225 25.1499 1.85382 25.1939C1.90952 25.232 2.24667 25.1997 2.34928 25.1499C2.39034 25.1295 2.5164 25.1002 2.62779 25.0883C2.7392 25.0767 2.89752 25.0502 2.97962 25.0267C3.0617 25.0033 3.24933 24.9651 3.39298 24.9419C3.53956 24.9184 3.72133 24.8803 3.80048 24.8538C3.87965 24.8303 3.98518 24.8099 4.03504 24.8099C4.08487 24.8099 4.21386 24.7864 4.31941 24.7541C4.42494 24.7248 4.59793 24.6897 4.70053 24.678C4.80315 24.6662 4.93507 24.6399 4.99664 24.6164C5.05822 24.5958 5.21359 24.5637 5.34259 24.546C5.47158 24.5284 5.62989 24.4963 5.69147 24.4728C5.75302 24.4523 5.88201 24.4258 5.97584 24.4142C6.07259 24.4024 6.2485 24.3701 6.36868 24.3408C6.58271 24.288 6.91692 24.2178 7.24821 24.159C7.33616 24.1444 7.49448 24.1121 7.60001 24.0858C7.70554 24.0623 7.89612 24.0242 8.02511 24.0037C8.15412 23.9831 8.29482 23.9508 8.33882 23.9361C8.37985 23.9186 8.52352 23.8892 8.6525 23.8717C8.78444 23.854 8.93983 23.8217 9.00138 23.8013C9.06003 23.7808 9.18901 23.7543 9.28576 23.7427C9.38252 23.7309 9.55548 23.6957 9.66689 23.6665C9.78121 23.6372 9.94834 23.6049 10.0451 23.5932C10.1389 23.5814 10.2679 23.5551 10.3295 23.5344C10.391 23.5112 10.5493 23.4789 10.6783 23.4612C10.8073 23.4438 10.9627 23.4115 11.0243 23.391C11.0829 23.3703 11.2119 23.344 11.3087 23.3322C11.4054 23.3206 11.5842 23.2855 11.7044 23.256C11.8246 23.2267 11.9976 23.1886 12.0856 23.1739C12.4139 23.1153 12.7511 23.0449 12.9651 22.9923C13.0853 22.9628 13.2612 22.9307 13.3579 22.9189C13.4517 22.9073 13.5778 22.8808 13.6394 22.8603C13.7009 22.8399 13.827 22.8134 13.9208 22.8017C14.0176 22.7899 14.1876 22.7578 14.299 22.7283C14.4134 22.699 14.5775 22.6667 14.6655 22.6551C14.7534 22.6462 14.8854 22.617 14.9588 22.5935C15.032 22.573 15.1903 22.5407 15.3105 22.5231C15.4307 22.5054 15.589 22.4733 15.6623 22.4498C15.7357 22.4264 15.8969 22.3941 16.0229 22.3764C16.149 22.3618 16.2751 22.3355 16.3044 22.3208C16.3308 22.3062 16.4627 22.2769 16.5945 22.2592C16.7266 22.2416 16.8879 22.2093 16.9493 22.186C17.0109 22.1653 17.1399 22.1391 17.2338 22.1272C17.3305 22.1156 17.5005 22.0833 17.6119 22.054C17.7262 22.0247 17.8964 21.9896 17.9931 21.9777C18.0898 21.9661 18.2188 21.9396 18.2774 21.9192C18.339 21.8987 18.4944 21.8664 18.6234 21.8487C18.7524 21.8313 18.9077 21.799 18.9693 21.7785C19.0309 21.755 19.1628 21.7286 19.2655 21.7169C19.368 21.7051 19.541 21.67 19.6465 21.6407C19.7521 21.6084 19.8723 21.5849 19.9162 21.5849C19.9573 21.5849 20.0922 21.5586 20.2154 21.5263C20.3384 21.4942 20.5407 21.4531 20.6669 21.4354C20.7929 21.418 20.9159 21.3915 20.9424 21.3769C20.9717 21.3622 21.1153 21.3329 21.2678 21.3064C21.4173 21.2832 21.6137 21.245 21.7018 21.2186C21.7897 21.1951 21.8952 21.1746 21.9363 21.1746C21.9772 21.1746 22.0828 21.154 22.1709 21.1305C22.2587 21.1042 22.4521 21.0661 22.5988 21.0426C22.7483 21.0191 22.9036 20.9868 22.9477 20.9692C22.9946 20.9517 23.1295 20.9252 23.2527 20.9076C23.3758 20.8929 23.5341 20.8608 23.6074 20.8374C23.6806 20.8139 23.8419 20.7816 23.9679 20.7639C24.0939 20.7493 24.2229 20.723 24.2522 20.7053C24.2815 20.6879 24.4105 20.6614 24.5367 20.6438C24.6627 20.6263 24.8621 20.5882 24.9823 20.5559C25.1025 20.5266 25.2345 20.5003 25.2754 20.5003C25.3194 20.5003 25.4397 20.4768 25.5453 20.4445C25.6506 20.4152 25.8237 20.3799 25.9263 20.3683C26.029 20.3566 26.1608 20.3302 26.2224 20.3067C26.284 20.2862 26.4395 20.2539 26.5685 20.2364C26.6973 20.2188 26.8556 20.1865 26.9202 20.163C26.9846 20.1396 27.1194 20.1132 27.2191 20.1014C27.3219 20.0898 27.489 20.0575 27.5945 20.0253C27.7 19.996 27.8202 19.9726 27.8614 19.9726C27.9023 19.9726 28.0401 19.9461 28.1691 19.9138C28.2951 19.8817 28.4915 19.8406 28.6029 19.8229C28.7144 19.8083 28.8609 19.7761 28.9255 19.7555C28.9929 19.7322 29.1307 19.7057 29.2363 19.6941C29.339 19.6822 29.4738 19.6559 29.5352 19.6325C29.5968 19.612 29.7523 19.5797 29.8813 19.562C30.0101 19.5444 30.1656 19.5123 30.2272 19.4916C30.2858 19.4712 30.4148 19.4448 30.5115 19.433C30.6084 19.4214 30.7813 19.3862 30.8927 19.3568C31.007 19.3275 31.1742 19.2953 31.2709 19.2835C31.3646 19.2719 31.4936 19.2454 31.5552 19.2249C31.6168 19.2015 31.7751 19.1692 31.9071 19.1517C32.0361 19.134 32.1797 19.1047 32.2209 19.0871C32.2648 19.0724 32.4231 19.0401 32.5726 19.0168C32.7251 18.9934 32.8715 18.9641 32.898 18.9494C32.9243 18.9346 33.0563 18.9053 33.1911 18.8878C33.3259 18.8702 33.4668 18.8409 33.5077 18.8262C33.5488 18.8116 33.7043 18.7793 33.8566 18.7558C34.0091 18.7295 34.1674 18.6972 34.2113 18.6796C34.2525 18.6649 34.3873 18.6386 34.5105 18.621C34.6335 18.6063 34.7918 18.574 34.8652 18.5505C34.9384 18.5272 35.0969 18.4949 35.2199 18.4803C35.3431 18.4626 35.4779 18.4363 35.5219 18.4187C35.563 18.404 35.689 18.3776 35.7975 18.3601C35.9059 18.3424 36.1053 18.3043 36.2429 18.275C36.3808 18.2427 36.5655 18.2046 36.6536 18.1871C36.8089 18.1578 37.0992 18.0991 37.4012 18.0376C37.4832 18.02 37.6209 17.9907 37.7089 17.976C37.7968 17.9584 37.9553 17.9261 38.0608 17.8998C38.1664 17.8733 38.357 17.8382 38.486 17.8177C38.6148 17.7972 38.7937 17.7591 38.8816 17.7326C38.9695 17.7092 39.122 17.6799 39.2187 17.6682C39.3156 17.6564 39.4446 17.6301 39.5032 17.6096C39.5648 17.589 39.7203 17.5568 39.8491 17.5392C39.9781 17.5216 40.1336 17.4893 40.1952 17.4688C40.2537 17.4483 40.3827 17.4218 40.4795 17.4102C40.5762 17.3985 40.7549 17.3632 40.8753 17.3339C40.9955 17.3046 41.1684 17.2665 41.2565 17.2519C41.4615 17.2167 41.8163 17.1433 42.1359 17.0701C42.2737 17.0378 42.4583 17.0056 42.5463 16.9938C42.6342 16.9822 42.7546 16.9587 42.816 16.9352C42.8776 16.9147 43.0331 16.8825 43.1619 16.8648C43.2909 16.8473 43.4464 16.815 43.5078 16.7945C43.5666 16.7739 43.6956 16.7476 43.7923 16.736C43.889 16.7241 44.0621 16.689 44.1735 16.6597C44.2878 16.6304 44.4519 16.5981 44.5398 16.5893C44.6279 16.5776 44.7597 16.5512 44.8329 16.5277C44.9064 16.5042 45.0675 16.472 45.1937 16.4544C45.3197 16.4398 45.4487 16.4134 45.478 16.3958C45.5075 16.3782 45.6365 16.3518 45.7625 16.3372C45.8885 16.3196 46.0498 16.2873 46.123 16.2639C46.1962 16.2404 46.3282 16.214 46.4161 16.2023C46.504 16.1935 46.6711 16.1613 46.7827 16.132C46.897 16.1026 47.0612 16.0704 47.1492 16.0587C47.2371 16.0469 47.3954 16.0147 47.4979 15.9824C47.6007 15.9531 47.7236 15.9267 47.7764 15.9267C47.8264 15.9267 47.9407 15.9062 48.0286 15.8828C48.1165 15.8564 48.3131 15.8182 48.4596 15.7948C48.6092 15.7684 48.7645 15.7362 48.8056 15.7215C48.8438 15.7068 49.0021 15.6746 49.1543 15.6482C49.3068 15.6248 49.4623 15.5925 49.5032 15.5779C49.5444 15.5632 49.685 15.5339 49.8198 15.5163C49.9549 15.4987 50.0869 15.4694 50.1132 15.4547C50.1396 15.4401 50.2861 15.4107 50.4386 15.3844C50.5881 15.3609 50.7845 15.3228 50.8723 15.2964C50.9604 15.273 51.0658 15.2524 51.1069 15.2524C51.148 15.2524 51.2535 15.2319 51.3414 15.2084C51.4295 15.1821 51.6171 15.1439 51.7607 15.1234C51.9014 15.1 52.0627 15.0648 52.1155 15.0472C52.1712 15.0296 52.3265 14.9974 52.4613 14.9768C52.5934 14.9563 52.7898 14.9182 52.8953 14.8918C53.0008 14.8654 53.1652 14.8332 53.2619 14.8156C53.3586 14.798 53.4904 14.7716 53.555 14.7569C53.6663 14.7276 53.9595 14.669 54.3025 14.6045C54.3906 14.5869 54.5752 14.5488 54.713 14.5166C54.8509 14.4872 55.0473 14.4491 55.1528 14.4345C55.2583 14.4198 55.3813 14.3934 55.4283 14.3759C55.4752 14.3553 55.6129 14.3289 55.736 14.3113C55.8592 14.2967 56.0177 14.2644 56.091 14.241C56.1642 14.2175 56.2904 14.1911 56.3694 14.1823C56.4515 14.1736 56.6216 14.1413 56.7504 14.1091C57.0054 14.0504 57.3838 13.9742 57.6595 13.9273C57.7562 13.9097 57.9087 13.8774 57.9966 13.854C58.0844 13.8335 58.2808 13.7954 58.4333 13.769C58.5858 13.7455 58.7295 13.7133 58.7557 13.6986C58.7822 13.684 58.9142 13.6576 59.0461 13.64C59.1781 13.6224 59.3394 13.5901 59.4008 13.5667C59.4624 13.5462 59.5914 13.5198 59.6853 13.508C59.782 13.4963 59.9519 13.4641 60.0633 13.4348C60.1776 13.4054 60.3478 13.3702 60.4447 13.3585C60.5414 13.3468 60.6704 13.3204 60.729 13.2999C60.7905 13.2794 60.9458 13.2471 61.0748 13.2295C61.2038 13.2119 61.3591 13.1797 61.4207 13.1592C61.4823 13.1357 61.6171 13.1093 61.7199 13.0976C61.8254 13.0859 61.9632 13.0595 62.0306 13.036C62.095 13.0155 62.2417 12.9833 62.3531 12.9686C62.4644 12.951 62.6608 12.91 62.787 12.8777C62.9158 12.8455 63.0537 12.8191 63.0948 12.8191C63.1357 12.8191 63.2561 12.7956 63.3616 12.7663C63.4672 12.7341 63.6343 12.7018 63.7368 12.6901C63.8365 12.6784 63.9714 12.652 64.036 12.6285C64.1004 12.6051 64.2587 12.5728 64.3877 12.5552C64.5167 12.5376 64.672 12.5054 64.7336 12.4849C64.7923 12.4644 64.9213 12.438 65.018 12.4262C65.1147 12.4145 65.2877 12.3793 65.3992 12.35C65.5134 12.3207 65.6777 12.2884 65.7656 12.2797C65.8535 12.2679 65.9855 12.2415 66.0587 12.2181C66.1319 12.1946 66.2935 12.1624 66.4194 12.1448C66.5454 12.1301 66.6716 12.1038 66.6979 12.0891C66.7244 12.0744 66.8532 12.048 66.9822 12.0275C67.1112 12.0099 67.2753 11.9777 67.3488 11.9542C67.422 11.9308 67.5538 11.9044 67.6419 11.8927C67.73 11.8839 67.8971 11.8516 68.0085 11.8223C68.1228 11.793 68.2869 11.7607 68.3748 11.749C68.4629 11.7373 68.6212 11.705 68.7237 11.6728C68.8262 11.6435 68.9494 11.6171 69.0022 11.6171C69.0519 11.6171 69.1665 11.5965 69.2544 11.5731C69.3424 11.5467 69.53 11.5086 69.6679 11.4852C69.8055 11.4646 69.9903 11.4265 70.0782 11.4031C70.166 11.3767 70.3039 11.3503 70.3831 11.3386C70.4652 11.3268 70.597 11.3005 70.6762 11.277C70.7583 11.2565 70.9196 11.2242 71.0398 11.2066C71.16 11.189 71.3124 11.1568 71.3768 11.1363C71.4445 11.1128 71.5821 11.0864 71.6876 11.0747C71.7903 11.063 71.9252 11.0366 71.9868 11.0131C72.0484 10.9926 72.2036 10.9604 72.3329 10.9428C72.4617 10.9252 72.6171 10.8929 72.6787 10.8724C72.7373 10.8519 72.8663 10.8255 72.963 10.8138C73.0597 10.8021 73.2327 10.7669 73.344 10.7375C73.4584 10.7082 73.6255 10.676 73.7224 10.6643C73.8161 10.6525 73.9451 10.6262 74.0067 10.6056C74.0683 10.5822 74.2296 10.5499 74.3614 10.5323C74.4935 10.5147 74.6253 10.4854 74.6516 10.4708C74.678 10.4561 74.8363 10.4239 75.0005 10.4004C75.1648 10.377 75.3231 10.3418 75.3495 10.3271C75.3788 10.3125 75.5078 10.289 75.6338 10.2714C75.7628 10.2568 75.9065 10.2274 75.9504 10.2098C75.9944 10.1952 76.1557 10.16 76.308 10.1366C76.4604 10.1102 76.6189 10.0779 76.6629 10.0603C76.704 10.0457 76.8388 10.0193 76.962 10.0017C77.085 9.98702 77.2433 9.95478 77.3165 9.93133C77.39 9.90788 77.5483 9.87563 77.6712 9.86097C77.7944 9.84337 77.9293 9.81699 77.9704 9.80234C78.0143 9.78475 78.1726 9.75251 78.3253 9.72612C78.4776 9.70265 78.6331 9.67041 78.674 9.65574C78.7151 9.6411 78.8558 9.61178 78.9906 9.59419C79.1254 9.57659 79.2574 9.54728 79.2837 9.53262C79.3102 9.51795 79.4685 9.48571 79.6326 9.46225C79.7969 9.43882 79.9552 9.40656 79.9817 9.39189C80.008 9.37723 80.1398 9.34791 80.2718 9.33034C80.4036 9.31274 80.5649 9.2805 80.6265 9.25703C80.6881 9.2365 80.8171 9.21012 80.9108 9.1984C81.0077 9.18667 81.1777 9.15443 81.2892 9.12511C81.4036 9.09578 81.5705 9.06354 81.6674 9.05182C81.7611 9.04009 81.8901 9.0137 81.9517 8.9932C82.0133 8.96972 82.1716 8.93748 82.3034 8.91989C82.4324 8.90229 82.5761 8.87298 82.6172 8.8554C82.6611 8.84074 82.8196 8.80848 82.9691 8.78502C83.1214 8.76157 83.2681 8.73226 83.2943 8.71761C83.3208 8.70295 83.4526 8.67363 83.5875 8.65602C83.7225 8.63844 83.8631 8.60913 83.9043 8.59446C83.9452 8.57982 84.1007 8.54756 84.2532 8.5241C84.4056 8.49772 84.5639 8.46546 84.6079 8.44788C84.649 8.43322 84.7838 8.40683 84.9068 8.38926C85.03 8.37459 85.1883 8.34233 85.2615 8.31888C85.5695 8.22213 85.587 8.22506 85.9447 8.4039C86.1236 8.49479 86.2936 8.58275 86.317 8.59739C86.3405 8.61206 86.4079 8.64723 86.4635 8.67068C86.5867 8.7264 86.7273 8.79674 86.7861 8.83195C86.827 8.85833 87.2875 9.09578 87.4546 9.17788C87.4986 9.1984 87.5543 9.22772 87.5776 9.24531C87.6011 9.25996 87.6538 9.28636 87.695 9.30103C87.7359 9.3186 87.7887 9.34206 87.8122 9.35672C87.8356 9.3743 88.0936 9.50623 88.3839 9.65574C88.6743 9.80234 89.1492 10.0457 89.4393 10.1981C89.7296 10.3476 90.1401 10.5558 90.3481 10.6613C90.5592 10.7698 90.7498 10.8695 90.7733 10.8841C90.7967 10.8988 90.8642 10.934 90.9199 10.9574C91.0429 11.0131 91.1836 11.0835 91.2423 11.1187C91.2833 11.1451 91.7437 11.3826 91.9109 11.4646C91.9548 11.4852 92.0106 11.5145 92.034 11.5291C92.072 11.5526 92.8957 11.9718 93.1921 12.1213C93.2565 12.1536 93.3297 12.1917 93.3532 12.2034C93.3767 12.2181 93.5701 12.3178 93.7783 12.4233C93.9894 12.5288 94.1798 12.6285 94.2033 12.6432C94.2267 12.6578 94.2825 12.6872 94.3264 12.7077C94.3704 12.7282 94.6521 12.8719 94.951 13.0243C95.2499 13.1768 95.5314 13.3204 95.5754 13.3409C95.6193 13.3615 95.6751 13.3908 95.6986 13.4054C95.7395 13.4318 96.1999 13.6693 96.3671 13.7514C96.411 13.7719 96.4668 13.8012 96.4902 13.8159C96.537 13.8423 97.5544 14.3641 97.6864 14.4257C97.7303 14.4462 97.7859 14.4755 97.8094 14.4902C97.8329 14.5048 98.0263 14.6045 98.2345 14.7101C98.4456 14.8156 98.6362 14.9153 98.6595 14.9299C98.6829 14.9446 98.7445 14.9739 98.7915 14.9974C98.8414 15.0208 99.1229 15.1645 99.4219 15.3199C100.184 15.7127 100.729 15.9942 100.823 16.0381C100.867 16.0587 100.923 16.088 100.946 16.1026C100.993 16.129 102.011 16.6509 102.143 16.7125C102.187 16.733 102.242 16.7623 102.266 16.7769C102.289 16.7916 102.483 16.8913 102.691 16.9968C102.902 17.1024 103.377 17.3458 103.746 17.5392C104.118 17.7298 104.646 18.0023 104.919 18.1402C105.194 18.2809 105.602 18.4919 105.828 18.6121C106.053 18.7295 106.259 18.835 106.282 18.8467C106.306 18.8585 106.367 18.8848 106.414 18.9083C106.537 18.9641 106.669 19.0315 106.722 19.0636C106.763 19.0901 107.223 19.3275 107.39 19.4096C107.434 19.4302 107.49 19.4595 107.513 19.4741C107.537 19.4888 107.783 19.612 108.056 19.7527C108.331 19.8905 108.587 20.0224 108.627 20.0458C108.669 20.0693 108.733 20.1044 108.774 20.1191C108.815 20.1367 109.085 20.2745 109.375 20.4269C109.964 20.7318 110.932 21.2274 111.055 21.286C111.099 21.3064 111.155 21.3359 111.178 21.3506C111.219 21.3769 111.679 21.6144 111.847 21.6965C111.89 21.7169 111.946 21.7462 111.97 21.7609C112.016 21.7873 113.034 22.309 113.166 22.3706C113.21 22.391 113.265 22.4205 113.289 22.4352C113.312 22.4498 113.506 22.5495 113.714 22.6551C113.925 22.7606 114.116 22.8603 114.139 22.875C114.163 22.8896 114.224 22.9189 114.271 22.9424C114.321 22.9659 114.602 23.1095 114.901 23.2648C115.664 23.6576 116.209 23.9391 116.303 23.9831C116.347 24.0037 116.402 24.033 116.426 24.0477C116.473 24.0739 117.49 24.5958 117.622 24.6574C117.666 24.678 117.722 24.7073 117.745 24.722C117.769 24.7366 117.962 24.8363 118.17 24.9419C118.382 25.0474 118.572 25.1469 118.595 25.1616C118.619 25.1762 118.68 25.2055 118.727 25.229C118.777 25.2524 119.059 25.3961 119.358 25.5516C120.601 26.1908 120.85 26.311 120.894 26.2963C120.964 26.2698 120.95 26.2201 120.862 26.179C120.815 26.1615 120.768 26.1292 120.75 26.1146C120.736 26.0969 120.642 26.0295 120.545 25.9651C120.448 25.9035 120.363 25.8449 120.355 25.8361C120.346 25.8273 120.202 25.7275 120.035 25.6162C119.868 25.5016 119.651 25.3552 119.551 25.2847C119.454 25.2173 119.281 25.1002 119.173 25.0209C119.061 24.9447 118.927 24.8568 118.877 24.8245C118.824 24.7922 118.721 24.722 118.651 24.6692C118.581 24.6164 118.449 24.5225 118.358 24.464C118.267 24.4054 118.097 24.288 117.98 24.209C117.862 24.1267 117.736 24.0418 117.701 24.0184C117.645 23.9802 117.519 23.8922 117.32 23.7543C117.285 23.7309 117.212 23.6811 117.156 23.646C117.1 23.6107 116.992 23.5344 116.91 23.4759C116.831 23.4173 116.684 23.3176 116.587 23.256C116.49 23.1916 116.326 23.0802 116.221 23.007C115.834 22.7371 115.623 22.5935 115.429 22.4645C115.321 22.391 115.142 22.2709 115.03 22.1946C114.919 22.1156 114.737 21.9924 114.626 21.9162C114.514 21.8371 114.394 21.755 114.359 21.7316C114.324 21.7081 114.204 21.626 114.092 21.5498C113.852 21.3827 113.781 21.3359 113.626 21.2362C113.562 21.1951 113.488 21.1451 113.465 21.1219C113.441 21.1012 113.347 21.0338 113.257 20.9752C113.095 20.8695 112.879 20.72 112.509 20.465C112.41 20.3947 112.257 20.292 112.172 20.2334C112.084 20.1777 111.981 20.1074 111.94 20.081C111.899 20.0546 111.782 19.9726 111.676 19.8992C111.571 19.8259 111.401 19.7087 111.295 19.6353C111.19 19.565 110.979 19.4184 110.826 19.3128C110.674 19.2073 110.357 18.9934 110.126 18.835C109.894 18.6796 109.63 18.4979 109.536 18.4333C109.229 18.2194 108.771 17.9056 108.657 17.8324C108.543 17.7561 108.34 17.6183 107.865 17.29C107.713 17.1844 107.496 17.0349 107.382 16.9587C107.27 16.8825 107.17 16.815 107.162 16.8062C107.153 16.7946 106.971 16.6714 106.754 16.5249C106.54 16.3811 106.288 16.2111 106.194 16.1466C106.1 16.0821 105.889 15.9384 105.722 15.8271C105.555 15.7127 105.412 15.616 105.403 15.6042C105.394 15.5954 105.25 15.4958 105.083 15.3844C104.916 15.27 104.705 15.1264 104.611 15.0618C104.517 14.9974 104.28 14.8332 104.08 14.6983C103.881 14.5605 103.605 14.3729 103.468 14.2791C102.96 13.9302 102.814 13.8305 102.749 13.7866C102.714 13.7631 102.629 13.7015 102.559 13.6546C102.491 13.6048 102.412 13.552 102.386 13.5374C102.307 13.4875 101.72 13.0859 101.257 12.7663C100.762 12.4233 100.668 12.3588 100.583 12.306C100.533 12.2767 100.439 12.2122 100.375 12.1682C100.31 12.1213 100.172 12.0246 100.067 11.9542C99.9612 11.8809 99.7912 11.7637 99.6857 11.6904C99.2666 11.4001 99.0174 11.2301 98.8766 11.1363C98.7357 11.0425 98.683 11.0073 98.4719 10.8607C98.3605 10.7845 98.2404 10.7024 98.2052 10.6789C98.1348 10.632 97.8475 10.4326 97.5339 10.2187C97.4224 10.1395 97.2436 10.0193 97.1351 9.946C96.9417 9.81699 96.7334 9.67334 96.3436 9.40363C96.2381 9.33034 96.0739 9.21893 95.977 9.15443C95.8803 9.09285 95.7894 9.02837 95.7718 9.01663C95.7425 8.99025 95.5373 8.84953 95.4054 8.7645C95.3057 8.69709 94.7927 8.34819 94.5728 8.19282C94.4761 8.12539 94.303 8.00812 94.1886 7.9319C94.0773 7.85861 93.9775 7.78825 93.9689 7.77944C93.9601 7.77065 93.9013 7.72667 93.8369 7.68562C93.6347 7.55371 93.6024 7.53319 93.0131 7.12566C92.9134 7.05532 92.6965 6.90872 92.5294 6.79438C92.3623 6.68297 92.2186 6.5833 92.2098 6.57449C92.201 6.5657 92.0633 6.47191 91.902 6.36343C91.7407 6.25494 91.4827 6.07903 91.3302 5.9735C91.1777 5.86797 90.9404 5.70672 90.8026 5.6129C90.0843 5.1233 89.8116 4.93565 89.6592 4.83012C89.5653 4.76562 89.3542 4.62197 89.1873 4.50763C89.0201 4.39624 88.8765 4.29654 88.8677 4.28776C88.8588 4.27604 88.7152 4.17927 88.5481 4.06493C88.3809 3.95354 88.1641 3.80696 88.0643 3.73658C87.7038 3.4874 87.4809 3.33494 87.4342 3.30563C87.3579 3.25872 86.748 2.83948 86.3933 2.59322C86.3287 2.54924 86.2496 2.49354 86.2145 2.47009C86.1764 2.44663 86.0356 2.34989 85.9007 2.25607C85.6369 2.08017 85.543 2.05671 85.4082 2.13294Z" fill="white"/>
<path d="M1.37044 25.277C1.35871 25.2946 1.41442 25.3065 1.51702 25.3065C1.61964 25.3065 1.67534 25.2946 1.66362 25.277C1.65481 25.2595 1.58739 25.2477 1.51702 25.2477C1.44666 25.2477 1.37924 25.2595 1.37044 25.277Z" fill="white"/>
<path d="M120.944 26.3513C120.944 26.3838 120.953 26.3928 120.962 26.3689C120.971 26.3483 120.968 26.3216 120.959 26.3128C120.95 26.3009 120.941 26.3188 120.944 26.3513Z" fill="white"/>
<path d="M3.1504 32.35C3.12402 32.3763 3.11523 33.8686 3.11523 38.8878V45.3902L3.18265 45.4049C3.28527 45.4313 6.37824 45.4079 6.42222 45.3816C6.4486 45.3639 6.45739 44.5255 6.45739 41.3621C6.45739 37.375 6.46032 37.2988 6.54827 37.2988C6.56001 37.2988 6.59518 37.3427 6.62742 37.3926C6.65968 37.4454 6.74764 37.5744 6.82093 37.68C6.89715 37.7855 7.00856 37.9496 7.07305 38.0463C7.13757 38.143 7.20498 38.2427 7.2255 38.2662C7.24603 38.2897 7.30467 38.3745 7.35742 38.4568C7.41021 38.5358 7.46883 38.6239 7.48935 38.6474C7.51281 38.6709 7.55386 38.7236 7.58026 38.7646C7.60662 38.8057 7.68872 38.9231 7.76201 39.0286C7.8353 39.1339 7.9555 39.3099 8.03467 39.4212C8.11089 39.5328 8.19885 39.6588 8.23109 39.7027C8.30145 39.7994 8.56237 40.1778 8.63273 40.2862C8.71188 40.4063 8.75295 40.4651 8.8321 40.5676C8.87315 40.6234 8.96401 40.7552 9.03732 40.8608C9.11061 40.9693 9.22788 41.1392 9.30117 41.239C9.37446 41.3415 9.44776 41.4442 9.46242 41.4677C9.48002 41.4911 9.53278 41.5674 9.57969 41.6378C9.62953 41.708 9.68229 41.7843 9.69696 41.8108C9.71453 41.837 9.77906 41.9309 9.84354 42.0188C9.91097 42.1069 10.0165 42.2564 10.0781 42.3531C10.1426 42.4468 10.2217 42.5611 10.254 42.6051C10.2862 42.6492 10.3742 42.7752 10.4504 42.8865C10.6938 43.2414 10.8374 43.4437 10.9693 43.6371C11.0426 43.7368 11.1364 43.8775 11.1833 43.9421C11.2273 44.0095 11.3036 44.1062 11.3504 44.1559L11.4355 44.2468H14.2441L14.3203 44.1648C14.3584 44.1208 14.4376 44.0183 14.4933 43.939C14.549 43.857 14.5988 43.7866 14.6105 43.7779C14.6252 43.7633 14.7219 43.6224 14.8597 43.4144C14.8891 43.3705 14.9682 43.2561 15.0328 43.1652C15.0972 43.0713 15.2028 42.9188 15.2672 42.8221C15.3318 42.7282 15.4373 42.5818 15.5018 42.4967C15.5663 42.4116 15.6572 42.2885 15.7012 42.2182C15.7774 42.1009 15.8096 42.0541 15.9914 41.7903C16.0295 41.7375 16.0734 41.6759 16.0881 41.6583C16.1057 41.6378 16.1878 41.5174 16.2757 41.3884C16.3638 41.2594 16.4575 41.1216 16.4898 41.0807C16.5426 41.0102 16.6363 40.8784 16.8474 40.5676C16.9031 40.4856 17.0292 40.3096 17.1259 40.1718C17.2228 40.034 17.3576 39.8434 17.4192 39.7467C17.5334 39.5737 17.6038 39.477 17.8853 39.0872C17.9614 38.9816 18.07 38.8234 18.1257 38.7353C18.1813 38.6474 18.2371 38.5681 18.2488 38.5593C18.2606 38.5505 18.3222 38.4626 18.3866 38.3687C18.7853 37.7736 18.8967 37.6154 19.099 37.3722C19.1752 37.2783 19.2133 37.2518 19.231 37.2783C19.2426 37.2959 19.2573 39.1311 19.2633 41.3503L19.2691 45.3902L19.3365 45.4049C19.4391 45.4313 22.532 45.4079 22.5759 45.3816C22.6024 45.3609 22.6112 44.0299 22.6112 38.8819V32.4028L22.5408 32.3586C22.4822 32.3177 22.2681 32.3147 20.7819 32.3207C19.0931 32.3293 19.0873 32.3293 19.0404 32.3909C18.9876 32.4583 18.9495 32.5141 18.8645 32.6401C18.8381 32.6842 18.7502 32.8132 18.6681 32.9306C18.5889 33.0478 18.501 33.1738 18.4775 33.2091C18.454 33.2442 18.4013 33.3204 18.3602 33.376C18.2927 33.4727 18.2371 33.555 17.9528 33.9829C17.894 34.068 17.7915 34.2205 17.721 34.3202C17.6536 34.4169 17.5394 34.584 17.466 34.6895C17.3957 34.7951 17.2989 34.9329 17.2521 34.9973C17.2081 35.0617 17.1435 35.1556 17.1142 35.2084C17.082 35.2581 16.991 35.393 16.909 35.5103C16.8299 35.6247 16.7418 35.7509 16.7185 35.786C16.695 35.8241 16.6334 35.912 16.5835 35.9824C16.5337 36.0528 16.3519 36.3225 16.1761 36.5805C15.8477 37.0642 15.6512 37.3515 15.4343 37.6623C15.3669 37.759 15.2585 37.9203 15.1939 38.017C15.1323 38.1137 15.0328 38.2574 14.974 38.3394C14.9154 38.4187 14.8128 38.5712 14.7454 38.6737C14.678 38.7764 14.5959 38.8966 14.5636 38.9405C14.5314 38.9845 14.4288 39.1369 14.332 39.2806C14.2382 39.4242 14.1415 39.5679 14.1209 39.6002C14.0975 39.6323 14.0183 39.7436 13.948 39.8492C13.8747 39.9549 13.7603 40.122 13.69 40.2187C13.6225 40.3185 13.517 40.4768 13.4525 40.5707C13.3909 40.6674 13.3001 40.7964 13.2561 40.8608C13.2092 40.9254 13.1212 41.0514 13.0626 41.1392C12.8837 41.4061 12.8837 41.4061 12.7899 41.3591C12.746 41.3357 12.6932 41.2771 12.6727 41.2271C12.6521 41.1774 12.6199 41.1276 12.6023 41.1158C12.5847 41.1041 12.5349 41.0425 12.4938 40.9781C12.3854 40.811 12.3384 40.7406 12.1801 40.5119C12.0629 40.3389 11.9251 40.1367 11.7873 39.9254C11.7668 39.8961 11.7228 39.8345 11.6905 39.7936C11.6026 39.6792 11.4531 39.4594 11.4296 39.4096C11.4208 39.3861 11.371 39.3129 11.3241 39.2483C11.2742 39.1839 11.1452 39.0021 11.0368 38.8408C10.9283 38.6825 10.7846 38.4714 10.7143 38.3717C10.5853 38.1841 10.5413 38.1225 10.4182 37.9291C10.3771 37.8645 10.295 37.7502 10.2393 37.6769C10.1836 37.6007 10.1103 37.4952 10.0781 37.4424C10.0458 37.3896 9.99893 37.3164 9.97547 37.2811C9.83475 37.0789 9.62367 36.7709 9.52985 36.6272C9.47121 36.5366 9.40671 36.4427 9.38325 36.4192C9.34222 36.3694 9.18978 36.1495 9.13993 36.0675C9.12526 36.0382 9.04611 35.9208 8.96401 35.8037C8.88486 35.6863 8.7676 35.5161 8.70895 35.4253C8.65033 35.3344 8.55651 35.2026 8.50082 35.1291C8.44512 35.0559 8.38353 34.965 8.36302 34.9241C8.3425 34.883 8.29852 34.8155 8.26333 34.7746C8.22816 34.7335 8.18418 34.6719 8.16368 34.6426C8.02 34.4257 7.88809 34.2293 7.76201 34.0445C7.68286 33.9302 7.58905 33.7893 7.55681 33.7396C7.52455 33.6868 7.45418 33.5843 7.40142 33.5138C7.34863 33.4434 7.23724 33.2793 7.14928 33.1503C7.06426 33.0213 6.95287 32.8572 6.90008 32.784C6.85024 32.7105 6.774 32.602 6.73298 32.5404C6.5688 32.2912 6.75643 32.3147 4.86546 32.3147C3.59896 32.3147 3.17679 32.3235 3.1504 32.35Z" fill="white"/>
<path d="M31.3828 32.4226C31.3359 32.4842 31.2745 32.5809 31.248 32.6367C31.2217 32.6925 31.1629 32.798 31.1132 32.8712C31.0662 32.9445 31.0077 33.0412 30.9812 33.0911C30.8817 33.2757 30.8231 33.3754 30.785 33.4224C30.7615 33.4487 30.7262 33.5044 30.7057 33.5454C30.6441 33.6685 30.4242 34.0439 30.043 34.6741C30.0049 34.7387 29.9551 34.8238 29.9375 34.8647C29.917 34.9058 29.8847 34.9586 29.8643 34.9819C29.8438 35.0054 29.8027 35.0728 29.7704 35.1285C29.703 35.2487 29.4568 35.671 29.3629 35.8263C29.2457 36.0228 29.1637 36.1636 29.0904 36.2896C28.9877 36.4684 28.765 36.8465 28.6946 36.9639C28.6623 37.0167 28.5802 37.1575 28.5098 37.2747C28.4394 37.3919 28.3104 37.6059 28.2255 37.7524C28.1374 37.896 28.0437 38.0543 28.0203 38.1043C27.9938 38.1512 27.9352 38.2508 27.8882 38.3242C27.8415 38.3974 27.7827 38.4943 27.7564 38.5441C27.733 38.591 27.6479 38.7377 27.5658 38.8665C27.4868 38.9955 27.3929 39.1538 27.3606 39.2184C27.3255 39.2828 27.2611 39.3942 27.2141 39.4676C27.1672 39.5408 27.1084 39.6375 27.0821 39.6875C27.0586 39.7342 27 39.8341 26.9501 39.9074C26.9031 39.9806 26.8357 40.0922 26.8034 40.1566C26.7713 40.2212 26.7125 40.3267 26.6716 40.3911C26.6305 40.4555 26.5719 40.5552 26.5396 40.611C26.5045 40.6666 26.4489 40.7635 26.4136 40.8221C26.3785 40.8806 26.2934 41.0271 26.2232 41.1445C26.1528 41.2618 26.0589 41.4171 26.0121 41.4906C25.9622 41.5638 25.8978 41.6751 25.8655 41.7397C25.8097 41.8481 25.7716 41.9155 25.6016 42.194C25.5106 42.3436 25.408 42.5166 25.3318 42.6456C25.1735 42.9152 24.9243 43.3404 24.7895 43.5661C24.5491 43.9678 24.4436 44.1465 24.385 44.2609C24.3585 44.3078 24.3 44.4075 24.253 44.481C24.2061 44.5542 24.1122 44.7095 24.0417 44.8269C23.9715 44.944 23.8895 45.0847 23.8572 45.1374C23.7135 45.372 23.7193 45.3545 23.7809 45.3896C23.8483 45.4247 27.2404 45.4307 27.2874 45.3954C27.3313 45.3631 27.478 45.1404 27.478 45.1081C27.478 45.0907 27.5014 45.0554 27.5307 45.0291C27.557 45.0026 27.6244 44.9001 27.6802 44.7976C27.733 44.6948 27.815 44.5542 27.859 44.481C27.9322 44.3636 28.1228 44.0382 28.2783 43.7683C28.3076 43.7156 28.369 43.616 28.4159 43.5426C28.4659 43.4694 28.5244 43.3697 28.5479 43.3229C28.5744 43.273 28.633 43.1763 28.6799 43.103C28.7269 43.0296 28.7913 42.9182 28.8236 42.8536C28.8529 42.7892 28.9115 42.6953 28.9526 42.6484L29.0258 42.5605L33.01 42.5517C35.2 42.5459 37.0471 42.5517 37.1173 42.5605C37.2288 42.578 37.2521 42.5956 37.3372 42.7307C37.3899 42.8157 37.4487 42.9152 37.4692 42.9564C37.4896 42.9975 37.5396 43.0824 37.5777 43.147C37.8241 43.5544 37.9413 43.7537 37.9824 43.8357C38.0175 43.9062 38.0526 43.9647 38.1963 44.1876C38.2314 44.2434 38.3018 44.3636 38.3516 44.4517C38.4015 44.5395 38.4717 44.6627 38.507 44.7241C38.6535 44.9675 38.7239 45.0907 38.7855 45.2078C38.9087 45.4336 38.7883 45.4189 40.6618 45.4189C41.6704 45.4189 42.3682 45.4073 42.4121 45.3896L42.4884 45.3631L42.4151 45.2371C42.377 45.1669 42.3184 45.0584 42.2831 44.994C42.2508 44.9294 42.1864 44.818 42.1367 44.7448C42.0897 44.6714 42.0309 44.5718 42.0046 44.5249C41.9812 44.4749 41.9224 44.3782 41.8726 44.305C41.8257 44.2316 41.7671 44.126 41.7406 44.0703C41.7143 44.0147 41.685 43.9619 41.6704 43.9531C41.6586 43.9443 41.597 43.8504 41.5326 43.739C41.2248 43.2056 41.1602 43.0972 41.0723 42.9505C41.0372 42.892 40.9433 42.7335 40.8671 42.5986C40.788 42.4638 40.6618 42.2497 40.5828 42.1207C40.5035 41.9917 40.4185 41.8453 40.3922 41.7983C40.3687 41.7486 40.2836 41.6049 40.2044 41.4759C40.1253 41.3469 39.9963 41.1298 39.9171 40.995C39.7823 40.7605 39.7237 40.6638 39.5858 40.435C39.4129 40.1538 39.3778 40.0922 39.3369 40.0101C39.3104 39.9601 39.2518 39.8634 39.2048 39.79C39.1551 39.7168 39.0905 39.6052 39.0554 39.5408C39.0231 39.4762 38.9585 39.3649 38.9115 39.2916C38.8646 39.2184 38.803 39.1187 38.7737 39.0659C38.7444 39.0162 38.6565 38.8607 38.5745 38.72C38.4952 38.5822 38.4103 38.4327 38.3869 38.3888C38.3662 38.3447 38.3253 38.2831 38.2988 38.251C38.2695 38.2187 38.2314 38.1599 38.2139 38.119C38.1933 38.0778 38.1112 37.9402 38.0322 37.8112C37.9529 37.6822 37.868 37.5355 37.8416 37.4888C37.8181 37.4388 37.7595 37.3421 37.7097 37.2689C37.6628 37.1954 37.5982 37.0841 37.5631 37.0197C37.5308 36.9551 37.4692 36.8496 37.4311 36.785C37.2463 36.483 37.1291 36.2838 36.9766 36.0199C36.9034 35.8937 36.8095 35.7326 36.7656 35.6594C36.5838 35.3573 36.5603 35.3133 36.4989 35.2136C36.3376 34.944 36.1647 34.6478 36.1059 34.5393C36.0708 34.4719 36.0238 34.3956 36.0004 34.3694C35.9769 34.3429 35.9506 34.3019 35.9388 34.2785C35.9299 34.255 35.883 34.1671 35.8332 34.0879C35.7863 34.0058 35.7189 33.8943 35.6866 33.8387C35.6252 33.736 35.5459 33.6011 35.4169 33.3871C35.3788 33.3257 35.3174 33.2201 35.2763 33.1497C35.1854 32.9914 35.0887 32.8301 34.9978 32.6806C34.9597 32.6162 34.9069 32.5193 34.8806 32.4666C34.8542 32.4138 34.8014 32.358 34.7603 32.3434C34.7163 32.3259 34.039 32.3141 33.0776 32.3141H31.4709L31.3828 32.4226ZM33.274 35.847C33.3091 35.9114 33.3677 36.0111 33.4 36.0667C33.5671 36.3424 33.6082 36.4126 33.6785 36.5358C33.7196 36.609 33.7812 36.7145 33.8163 36.7703C33.8514 36.8261 33.91 36.9258 33.9453 36.9904C33.9834 37.0548 34.042 37.1545 34.0743 37.2103C34.1094 37.2659 34.1652 37.3598 34.2003 37.4183C34.2354 37.4799 34.3321 37.641 34.4114 37.7819C34.4934 37.9195 34.5873 38.0836 34.6224 38.1424C34.813 38.4562 34.8688 38.5559 35.0241 38.8226C35.0652 38.896 35.1268 39.0015 35.1591 39.0571C35.5371 39.6875 35.5489 39.7079 35.505 39.7342C35.4843 39.7491 34.3995 39.7607 33.098 39.7607C31.0662 39.7607 30.7292 39.7549 30.7145 39.7196C30.7057 39.6961 30.7438 39.5994 30.8024 39.5057C30.8582 39.4118 30.9579 39.2419 31.0253 39.1303C31.0897 39.0162 31.2157 38.8051 31.3038 38.6615C31.3887 38.5148 31.5149 38.3037 31.5823 38.1922C31.6469 38.0778 31.7319 37.9342 31.7729 37.8698C31.811 37.8052 31.8726 37.7056 31.9049 37.6499C31.9372 37.5941 31.9958 37.4946 32.0367 37.43C32.0778 37.3656 32.1364 37.26 32.1715 37.1954C32.2038 37.131 32.2684 37.0197 32.3152 36.9463C32.3621 36.873 32.4237 36.7733 32.453 36.7234C32.4823 36.6736 32.5381 36.5769 32.579 36.5065C32.6817 36.3305 32.7812 36.1606 32.9163 35.9202C33.0246 35.7296 33.0394 35.715 33.1215 35.7208C33.1889 35.7268 33.224 35.7561 33.274 35.847Z" fill="white"/>
<path d="M46.8126 32.3467C46.6689 32.3614 46.496 32.3937 46.4314 32.4171C46.367 32.4406 46.2498 32.4727 46.1675 32.4904C45.939 32.5401 45.5257 32.7365 45.2208 32.942C44.6608 33.3172 44.1713 33.8595 43.8605 34.4517C43.8164 34.5368 43.7782 34.6219 43.7782 34.6423C43.7782 34.66 43.7578 34.7128 43.7313 34.7625C43.705 34.8095 43.6581 34.9501 43.6258 35.0703C43.5965 35.1905 43.5553 35.3429 43.5349 35.4073C43.5086 35.4954 43.4998 36.3427 43.4998 38.8522C43.4998 42.0097 43.5026 42.1887 43.5553 42.3704C43.5848 42.476 43.6199 42.6194 43.6346 42.6929C43.6492 42.7661 43.6815 42.8628 43.702 42.9127C43.7255 42.9595 43.7989 43.112 43.8663 43.2498C43.9307 43.3876 44.007 43.5343 44.0364 43.5782C44.353 44.0648 44.6227 44.3432 45.2119 44.7979C45.2589 44.833 45.3086 44.8623 45.3233 44.8623C45.3379 44.8623 45.3937 44.8946 45.4495 44.9357C45.5051 44.9766 45.5697 45.0089 45.599 45.0089C45.6254 45.0089 45.678 45.0324 45.7161 45.0617C45.7954 45.1233 45.9976 45.1995 46.2556 45.2639C46.3523 45.2874 46.4902 45.3285 46.5634 45.3548C46.6836 45.4018 47.2758 45.4046 53.7432 45.4134C58.9795 45.4194 60.8 45.4106 60.8293 45.3871C60.8644 45.3578 60.8702 44.7391 60.8702 41.5641C60.8702 37.9317 60.8674 37.7734 60.8174 37.7294C60.7677 37.6825 60.4715 37.6797 57.1441 37.6797C54.2857 37.6797 53.5117 37.6883 53.4531 37.7178L53.3796 37.7559L53.371 39.0723C53.365 40.1041 53.371 40.3914 53.4003 40.4119C53.4208 40.4237 54.3326 40.4354 55.4261 40.4354C57.3728 40.4354 57.4109 40.4354 57.4695 40.4941C57.5253 40.5497 57.5281 40.5908 57.5281 41.4849C57.5281 42.171 57.5195 42.426 57.493 42.4525C57.449 42.4964 48.3899 42.5023 48.0966 42.4611C47.7537 42.4114 47.4225 42.2061 47.144 41.8691C47.0648 41.7782 47.0032 41.6931 47.0032 41.6785C47.0032 41.6666 46.9681 41.5846 46.9241 41.4937L46.8421 41.3296V36.4043L46.9299 36.2137C46.9769 36.1081 47.059 35.9645 47.1087 35.8913C47.2084 35.7534 47.4927 35.507 47.6863 35.3987C47.9618 35.2404 47.6775 35.2462 54.268 35.2462C58.0529 35.2462 60.3748 35.2344 60.4013 35.2169C60.4394 35.1935 60.4453 35.0001 60.4541 33.8097C60.4599 32.8774 60.4511 32.4111 60.4306 32.3732C60.3983 32.3144 60.3574 32.3144 53.7374 32.3174C50.0728 32.3204 46.9592 32.3351 46.8126 32.3467Z" fill="white"/>
<path d="M62.488 32.3881C62.4617 32.4467 62.4529 34.0768 62.4529 38.8966C62.4529 44.7043 62.4587 45.3316 62.4998 45.3728C62.5408 45.4137 62.7225 45.4195 64.077 45.4195C64.9214 45.4195 65.6543 45.4109 65.7041 45.4021L65.795 45.3814V40.9458C65.795 38.1342 65.8068 36.4836 65.8243 36.4369C65.8389 36.3957 65.8712 36.3606 65.8947 36.3606C65.9358 36.3606 66.1323 36.5189 66.4607 36.8179C66.5309 36.8825 66.6483 36.985 66.7245 37.0496C66.8768 37.1786 67.2785 37.5275 67.5953 37.8088C67.8826 38.061 68.076 38.2281 68.2754 38.398C68.3691 38.4773 68.5743 38.6562 68.7268 38.7941C68.8793 38.9317 69.0522 39.0842 69.1108 39.1311C69.3718 39.348 69.5332 39.4887 69.621 39.5707C69.7382 39.6823 69.873 39.7994 70.2219 40.0956C70.3744 40.2246 70.5534 40.3801 70.6178 40.4386C70.8583 40.6585 71.2951 41.0425 71.3741 41.1011C71.4504 41.1597 71.7054 41.3826 71.9195 41.579C71.9634 41.6202 72.0838 41.7257 72.1863 41.8136C72.6261 42.1948 73.0247 42.5407 73.2123 42.7078C73.3032 42.7868 73.4499 42.913 73.5377 42.9863C73.6228 43.0597 73.7283 43.1506 73.7723 43.1915C73.8164 43.2326 73.922 43.3235 74.0068 43.3967C74.0919 43.47 74.2267 43.5873 74.3118 43.6606C74.3938 43.7338 74.5317 43.8512 74.6165 43.9244C74.7016 43.9976 74.813 44.0943 74.8659 44.1443C74.9861 44.2556 75.1416 44.3905 75.3906 44.6017C75.6135 44.7893 75.9359 45.0766 76.1411 45.2642C76.2144 45.3346 76.3171 45.3962 76.364 45.4049C76.4138 45.4137 77.179 45.4167 78.0644 45.4137L79.6769 45.4049L79.6857 38.9259C79.6887 35.3609 79.6857 32.4174 79.6769 32.3793L79.6622 32.3147H78.0235C76.5574 32.3147 76.3845 32.3205 76.3669 32.3616C76.358 32.3881 76.3492 34.4169 76.3492 36.8706C76.3492 40.4944 76.3434 41.3445 76.3111 41.3856C76.276 41.4354 76.2671 41.4324 76.1704 41.3503C76.1177 41.3006 75.9301 41.1362 75.7599 40.9868C75.4405 40.7055 75.1328 40.4386 74.8394 40.1866C74.7455 40.1044 74.6312 40.0077 74.5903 39.9666C74.3615 39.7555 74.256 39.6616 73.9894 39.4389C73.8281 39.3041 73.5789 39.0872 73.4322 38.9552C73.2886 38.8262 73.0452 38.6151 72.8987 38.4891C72.7491 38.3659 72.5675 38.2074 72.4941 38.14C72.333 37.9877 72.2421 37.9085 72.0396 37.7385C71.9546 37.6651 71.8167 37.5479 71.7347 37.4747C71.462 37.2372 71.1514 36.9645 70.9843 36.8148C70.8934 36.7328 70.7468 36.6098 70.6589 36.5364C70.5738 36.4631 70.4653 36.3722 70.4213 36.3313C70.2982 36.217 69.9757 35.9385 69.5799 35.5984C69.495 35.525 69.3835 35.4253 69.3307 35.3783C69.281 35.3286 69.1578 35.223 69.0641 35.141C68.6887 34.8156 68.1199 34.323 68.0232 34.2351C67.8884 34.1119 67.6246 33.8832 67.4516 33.7366C67.3724 33.6722 67.2668 33.5783 67.2141 33.5315C67.1613 33.4816 67.0469 33.3848 66.9649 33.3116C66.8798 33.2382 66.7977 33.165 66.7801 33.1475C66.7626 33.1329 66.6483 33.0331 66.5281 32.9304C66.4079 32.8279 66.229 32.6726 66.1323 32.5845C65.8127 32.2884 66.0002 32.3147 64.1504 32.3147H62.5203L62.488 32.3881Z" fill="white"/>
<path d="M81.3341 32.3727C81.29 32.4549 81.3106 42.1296 81.3546 42.2965C81.3722 42.3611 81.4073 42.4989 81.4336 42.6045C81.5422 43.0238 81.7474 43.4254 82.1256 43.9617C82.2488 44.1349 82.9113 44.7446 82.9759 44.7446C82.9905 44.7446 83.0198 44.7653 83.0433 44.7885C83.1107 44.8531 83.5796 45.0905 83.8259 45.1814C84.084 45.2781 84.3831 45.3573 84.6351 45.3924C84.7376 45.4101 86.9307 45.4159 89.7656 45.4131C94.3011 45.4043 94.7262 45.4013 94.8199 45.3543C94.8757 45.328 94.9901 45.2987 95.0691 45.2869C95.1512 45.2753 95.2625 45.243 95.3183 45.2137C95.3741 45.1872 95.4678 45.1551 95.5266 45.1432C95.5881 45.1316 95.6497 45.1051 95.6702 45.0819C95.6879 45.0584 95.7523 45.0261 95.811 45.0056C95.8696 44.9849 95.9517 44.9468 95.9926 44.9205C96.0337 44.8941 96.1246 44.8327 96.1979 44.7857C96.3826 44.6684 96.4324 44.6244 96.8134 44.2462C97.0012 44.0614 97.2153 43.8153 97.2943 43.6979C97.4879 43.402 97.696 42.9798 97.7371 42.7951C97.7487 42.7453 97.7869 42.6279 97.8192 42.5312L97.8836 42.3553L97.8924 37.3919C97.8982 33.9238 97.8894 32.4138 97.8689 32.3727C97.8396 32.3141 97.8045 32.3141 96.2536 32.3141C95.2186 32.3141 94.65 32.3259 94.6119 32.3434C94.5561 32.3757 94.5561 32.4549 94.5561 36.7526C94.5561 39.7812 94.5473 41.1796 94.524 41.3C94.4624 41.64 94.2132 41.9975 93.8964 42.2086C93.8144 42.2644 93.7351 42.3113 93.7235 42.3113C93.7116 42.3113 93.6268 42.3464 93.5359 42.3904L93.3688 42.4724H85.8343L85.6876 42.405C85.6086 42.3669 85.4942 42.3141 85.4384 42.2879C85.3828 42.2614 85.2362 42.1412 85.113 42.018C84.8492 41.7572 84.7113 41.5022 84.6732 41.2002C84.6586 41.0945 84.6497 39.0659 84.6469 36.6913C84.6469 32.4549 84.6469 32.3757 84.5912 32.3434C84.553 32.3259 83.9844 32.3141 82.9494 32.3141C81.3927 32.3141 81.3662 32.3141 81.3341 32.3727Z" fill="white"/>
<path d="M99.511 32.3689C99.464 32.4569 99.4698 45.3359 99.5168 45.3828C99.5607 45.4267 102.633 45.4328 102.748 45.3886L102.824 45.3593V41.387C102.824 38.7016 102.833 37.3911 102.853 37.3529C102.897 37.2709 102.926 37.2825 103.02 37.4204C103.067 37.4908 103.164 37.6314 103.237 37.7311C103.369 37.9245 103.513 38.1268 103.756 38.4817C103.832 38.5931 103.92 38.719 103.953 38.7632C103.985 38.8071 104.073 38.9331 104.149 39.0445C104.228 39.1558 104.345 39.3288 104.413 39.4257C104.483 39.5252 104.592 39.6835 104.656 39.7774C104.718 39.8743 104.823 40.0179 104.89 40.103C104.955 40.1879 105.046 40.3199 105.093 40.3961C105.14 40.4722 105.198 40.5572 105.219 40.5807C105.242 40.6042 105.316 40.7097 105.383 40.8122C105.45 40.915 105.533 41.0351 105.565 41.0791C105.676 41.2344 105.805 41.4163 105.966 41.6567C106.057 41.7915 106.151 41.9175 106.172 41.941C106.192 41.9616 106.26 42.0583 106.318 42.152C106.38 42.2487 106.494 42.4159 106.576 42.5302C106.658 42.6416 106.785 42.8205 106.855 42.9261C107.045 43.2017 107.221 43.4568 107.336 43.6181C107.391 43.6971 107.488 43.8349 107.547 43.9228C107.608 44.0137 107.69 44.1222 107.731 44.1662L107.805 44.2454H109.206C110.49 44.2454 110.613 44.2394 110.669 44.1927C110.748 44.1251 110.865 43.9639 111.261 43.3835C111.337 43.2722 111.425 43.146 111.458 43.102C111.49 43.0581 111.584 42.9261 111.663 42.8089C111.745 42.6915 111.836 42.5595 111.868 42.5156C111.9 42.4716 111.988 42.3457 112.064 42.2341C112.144 42.1228 112.264 41.947 112.337 41.8415C112.411 41.7359 112.501 41.6039 112.54 41.5483C112.581 41.4926 112.671 41.3606 112.748 41.255C112.821 41.1495 112.941 40.9794 113.011 40.8738C113.085 40.7683 113.202 40.5984 113.275 40.4928C113.349 40.3873 113.431 40.2699 113.457 40.229C113.486 40.1879 113.563 40.0823 113.627 39.9945C113.692 39.9064 113.759 39.8127 113.774 39.7862C113.791 39.7597 113.844 39.6807 113.891 39.6133C113.941 39.5428 114 39.4578 114.023 39.4227C114.046 39.3875 114.108 39.3025 114.155 39.2321C114.205 39.1618 114.263 39.0768 114.287 39.0417C114.357 38.9389 114.486 38.7544 114.556 38.6577C114.594 38.6077 114.685 38.4759 114.762 38.3643C114.841 38.253 114.958 38.0798 115.026 37.9803C115.096 37.8834 115.21 37.7165 115.281 37.6138C115.463 37.3529 115.574 37.2444 115.609 37.3002C115.624 37.3237 115.635 38.9859 115.635 41.3429C115.635 44.4184 115.644 45.3565 115.671 45.3828C115.715 45.4267 118.787 45.4328 118.901 45.3886L118.978 45.3593V38.8687C118.978 32.4774 118.978 32.3749 118.922 32.3426C118.86 32.3103 115.618 32.2984 115.498 32.3307C115.463 32.3396 115.392 32.4188 115.336 32.5097C115.284 32.5978 115.184 32.7412 115.116 32.8263C115.046 32.9142 114.99 32.9904 114.99 32.9993C114.99 33.0081 114.914 33.1224 114.823 33.2573C114.445 33.8084 114.366 33.9228 114.178 34.2042C114.067 34.3656 113.961 34.515 113.944 34.5355C113.923 34.556 113.906 34.5852 113.906 34.5941C113.906 34.6059 113.841 34.7084 113.759 34.8198C113.586 35.0631 113.568 35.0894 113.501 35.1921C113.475 35.2331 113.41 35.327 113.36 35.3974C113.311 35.4648 113.173 35.6672 113.053 35.846C112.369 36.8486 112.24 37.0364 112.129 37.2093C112.059 37.3148 111.953 37.4643 111.891 37.5435C111.83 37.6226 111.76 37.7251 111.736 37.7693C111.713 37.8102 111.631 37.9392 111.554 38.0477C111.478 38.1591 111.329 38.3762 111.223 38.5286C111.118 38.6809 110.994 38.8569 110.951 38.9213C110.907 38.9829 110.848 39.0679 110.822 39.1119C110.792 39.153 110.757 39.2086 110.739 39.2321C110.725 39.2555 110.66 39.3494 110.599 39.4403C110.487 39.6133 110.282 39.9094 110.08 40.2025C109.965 40.3668 109.804 40.6072 109.705 40.7567C109.678 40.7976 109.596 40.915 109.52 41.0205C109.447 41.126 109.359 41.252 109.329 41.302C109.25 41.431 109.139 41.3929 109.027 41.1992C108.989 41.1377 108.781 40.8299 108.585 40.5514C108.353 40.226 108.294 40.1351 108.242 40.0414C108.215 39.9886 108.174 39.9299 108.148 39.9094C108.121 39.8859 108.101 39.8536 108.101 39.8331C108.101 39.8127 108.08 39.7804 108.057 39.7597C108.01 39.7216 107.866 39.5194 107.828 39.4373C107.816 39.4138 107.767 39.3406 107.72 39.276C107.555 39.0563 107.28 38.6428 107.28 38.6195C107.28 38.6049 107.26 38.5784 107.236 38.5579C107.21 38.5375 107.078 38.3527 106.943 38.1503C106.805 37.948 106.656 37.7281 106.606 37.6637C106.559 37.5991 106.506 37.5171 106.488 37.482C106.474 37.4438 106.406 37.3471 106.342 37.2651C106.277 37.1828 106.224 37.1068 106.224 37.0921C106.224 37.0745 106.139 36.9543 106.025 36.8134C106.013 36.7958 105.952 36.7049 105.89 36.6082C105.829 36.5115 105.741 36.3795 105.694 36.3151C105.647 36.2505 105.533 36.0864 105.445 35.9485C105.354 35.8109 105.26 35.6731 105.239 35.6408C105.216 35.6087 105.137 35.4971 105.066 35.3916C104.993 35.286 104.879 35.1189 104.808 35.022C104.741 34.9225 104.632 34.7642 104.571 34.6703C104.422 34.4446 104.339 34.3274 104.199 34.131C104.134 34.0429 104.067 33.9432 104.052 33.9111C104.038 33.8788 103.985 33.7996 103.938 33.7352C103.821 33.5767 103.351 32.8937 103.278 32.7707C103.246 32.718 103.196 32.6504 103.17 32.6241C103.14 32.5948 103.117 32.5625 103.117 32.5478C103.117 32.5332 103.076 32.4746 103.026 32.4158L102.935 32.3133H101.238C99.59 32.3133 99.5402 32.3161 99.511 32.3689Z" fill="white"/>
<path d="M26.95 49.2221C26.8182 49.2455 26.5484 49.3452 26.4019 49.4215C25.7541 49.7676 25.4461 50.5209 25.6895 51.163C25.8185 51.4942 26.1997 51.808 26.5748 51.8842C26.6276 51.8959 26.7273 51.9223 26.7947 51.9456C26.865 51.9663 27.076 51.9984 27.2638 52.016C27.4544 52.0337 27.6771 52.0658 27.7564 52.0865C27.8384 52.1099 27.9556 52.1362 28.0202 52.1481C28.1785 52.1743 28.407 52.2915 28.542 52.4235C28.7796 52.6464 28.8793 53.0862 28.7561 53.35C28.6006 53.6843 28.4863 53.7956 28.1081 53.9802C27.9704 54.0506 27.9323 54.0537 27.4779 54.0537C27.1846 54.0537 26.953 54.039 26.8914 54.0185C26.6188 53.9275 26.5163 53.8835 26.4077 53.8103C26.2613 53.7106 26.0267 53.4732 25.9124 53.3119C25.8624 53.2445 25.8157 53.1887 25.8038 53.1887C25.7922 53.1887 25.7218 53.2445 25.6455 53.3149L25.5105 53.4379L25.5633 53.5846C25.6395 53.7956 26.0735 54.2266 26.3345 54.3528C26.6892 54.5227 26.8182 54.5608 27.1641 54.599C27.4691 54.6313 27.5511 54.6313 27.8414 54.5873C28.0232 54.5608 28.2108 54.5199 28.2575 54.4964C28.3045 54.473 28.4219 54.4172 28.5186 54.3702C28.6945 54.2854 29.0904 53.9275 29.0904 53.8512C29.0904 53.8308 29.1138 53.781 29.1459 53.7429C29.231 53.6343 29.3335 53.1859 29.3161 52.9895C29.2691 52.4147 29.0815 52.0688 28.7003 51.8608C28.3661 51.679 28.1785 51.6292 27.39 51.5149C26.8387 51.4356 26.6364 51.377 26.4282 51.2392C26.2348 51.1102 26.1469 50.9547 26.1351 50.7055C26.1204 50.4652 26.185 50.2952 26.3461 50.1223C26.8387 49.6033 27.8473 49.6091 28.5039 50.1369C28.5918 50.2102 28.6857 50.2922 28.7122 50.3245C28.7443 50.3654 28.7766 50.3743 28.8235 50.3596C28.9174 50.3303 29.0904 50.1397 29.0904 50.0665C29.0904 49.9698 28.7619 49.6618 28.4951 49.5094C28.2722 49.3804 28.0407 49.2953 27.7564 49.2309C27.6362 49.2046 27.0849 49.1986 26.95 49.2221Z" fill="white"/>
<path d="M3.27698 49.3538C3.2682 49.3919 3.26525 50.5762 3.2682 51.9865L3.27698 54.5517L4.78389 54.5606C5.87157 54.5636 6.30252 54.5576 6.32891 54.5343C6.39048 54.4843 6.38462 54.118 6.32012 54.0652C6.282 54.0329 6.02401 54.0213 5.03895 54.0094L3.80468 53.9948L3.7959 53.1122C3.79004 52.397 3.7959 52.224 3.82816 52.1945C3.85747 52.1741 4.22392 52.1594 5.0243 52.1564L6.17939 52.1478L6.19699 51.6348H5.02723C4.15944 51.6348 3.85161 51.6259 3.82523 51.5995C3.77537 51.5497 3.77537 49.9021 3.82523 49.8524C3.85161 49.8259 4.17116 49.817 5.08585 49.817H6.31131L6.34064 49.7408C6.37876 49.6441 6.37876 49.4184 6.34064 49.345C6.31131 49.2922 6.26147 49.2892 4.80148 49.2892H3.29163L3.27698 49.3538Z" fill="white"/>
<path d="M48.3427 49.3406C48.2869 49.4022 48.2752 49.6191 48.3222 49.7393L48.3515 49.8155H49.0521C49.6678 49.8155 49.7557 49.8215 49.7908 49.8655C49.8261 49.9036 49.8349 50.3257 49.8466 52.2313L49.8612 54.5502H50.3305L50.3391 52.2373C50.3452 50.144 50.351 49.9183 50.3919 49.8683C50.436 49.8215 50.5093 49.8155 51.1336 49.8097L51.8256 49.8009L51.8519 49.6602C51.8696 49.5752 51.8696 49.4785 51.8519 49.4111L51.8256 49.3025L50.1076 49.2939C48.4717 49.2879 48.3866 49.2909 48.3427 49.3406Z" fill="white"/>
<path d="M72.4157 49.3476C72.3748 49.3799 72.3278 49.4531 72.3102 49.5147C72.2955 49.5763 72.2516 49.6995 72.2165 49.7874C72.067 50.157 72.0405 50.2244 71.9527 50.4617C71.9029 50.5995 71.8441 50.7432 71.8237 50.7841C71.8002 50.8253 71.7739 50.9043 71.7621 50.9601C71.7504 51.0159 71.7298 51.0773 71.7151 51.0949C71.7005 51.1126 71.6623 51.1976 71.6331 51.2855C71.5215 51.5965 71.4659 51.7371 71.4453 51.7722C71.4248 51.8073 71.3897 51.8954 71.2489 52.2941C71.2168 52.3908 71.1698 52.508 71.1463 52.5579C71.1259 52.6049 71.0847 52.7046 71.0584 52.7778C71.032 52.8512 70.9822 52.9742 70.9499 53.0565C70.8943 53.2001 70.8356 53.3466 70.6773 53.7599C70.6363 53.8712 70.5805 54.0237 70.5571 54.0941C70.5366 54.1646 70.5043 54.2378 70.4897 54.2554C70.4369 54.3199 70.4048 54.5018 70.4369 54.5339C70.4546 54.5516 70.5717 54.5662 70.6979 54.5662C70.9236 54.5662 70.9264 54.5662 70.9764 54.4723C71.0378 54.3552 71.1463 54.0823 71.2196 53.8538C71.2488 53.7599 71.287 53.6662 71.3016 53.6485C71.3135 53.6281 71.3427 53.5546 71.3632 53.4814C71.4013 53.3524 71.4922 53.1971 71.5568 53.1532C71.6008 53.1209 73.4624 53.1239 73.5475 53.159C73.6207 53.1853 73.7116 53.3496 73.8083 53.6281C73.911 53.93 73.9726 54.0883 74.0166 54.1704C74.0428 54.2173 74.0635 54.2817 74.0635 54.311C74.0635 54.3875 74.1426 54.5281 74.1953 54.5486C74.2216 54.5574 74.342 54.5662 74.4622 54.5662C74.6263 54.5662 74.6851 54.5546 74.6967 54.5223C74.7113 54.4842 74.6174 54.2027 74.5177 53.9944C74.4943 53.9447 74.465 53.8596 74.4475 53.8038C74.418 53.6955 74.3243 53.4551 74.2364 53.2587C74.2041 53.1913 74.1807 53.1209 74.1807 53.1004C74.1807 53.0798 74.1542 53.0095 74.1249 52.9421C74.0956 52.8745 74.0282 52.7104 73.9784 52.5726C73.9285 52.4347 73.8699 52.2969 73.8524 52.2648C73.8348 52.2325 73.8025 52.1474 73.782 52.0742C73.7439 51.9394 73.6588 51.7106 73.5621 51.4996C73.5298 51.4322 73.5066 51.3589 73.5066 51.3383C73.5066 51.3148 73.4801 51.2474 73.4478 51.1858C73.4157 51.1272 73.3892 51.0626 73.3892 51.0452C73.3892 51.0305 73.3569 50.9424 73.3159 50.8546C73.2748 50.7667 73.2425 50.6786 73.2425 50.6581C73.2425 50.6377 73.219 50.5761 73.1898 50.5203C73.1575 50.4647 73.1254 50.3768 73.1135 50.3299C73.1019 50.2799 73.0726 50.2009 73.0519 50.1539C72.9815 49.9987 72.8409 49.6291 72.8232 49.547C72.8116 49.5059 72.7676 49.4297 72.7265 49.3799C72.6356 49.2714 72.5243 49.2597 72.4157 49.3476ZM72.6474 50.5556C72.6649 50.5761 72.6942 50.6465 72.7119 50.7109C72.7295 50.7755 72.7704 50.881 72.8027 50.9454C72.835 51.007 72.8613 51.0803 72.8613 51.1067C72.8613 51.13 72.8878 51.2034 72.9171 51.2681C72.9494 51.3325 73.0168 51.4968 73.0666 51.6344C73.1165 51.7722 73.1751 51.9217 73.1956 51.9717C73.2632 52.1181 73.3892 52.4552 73.3892 52.4817C73.3892 52.4963 73.3687 52.5314 73.3422 52.5549C73.3041 52.596 73.1928 52.6018 72.58 52.6018C72.114 52.6018 71.8383 52.5902 71.8002 52.5695C71.7504 52.5433 71.7444 52.5198 71.7591 52.4171C71.7709 52.3497 71.7972 52.2676 71.8178 52.2355C71.8383 52.2032 71.8764 52.1181 71.9029 52.0449C71.9527 51.9012 72.0612 51.6111 72.1784 51.312C72.2165 51.2063 72.2693 51.0686 72.2927 51.004C72.3162 50.9396 72.3513 50.8546 72.3748 50.8136C72.3983 50.7725 72.4246 50.6932 72.4364 50.6377C72.4745 50.4589 72.5477 50.4324 72.6474 50.5556Z" fill="white"/>
<path d="M93.1656 49.3361C93.1128 49.3889 93.1012 49.6232 93.1479 49.7406L93.1774 49.8168H93.875C94.3792 49.8168 94.5817 49.8257 94.6079 49.852C94.6344 49.8784 94.6432 50.4384 94.6432 52.1945C94.6432 54.141 94.6491 54.5046 94.6844 54.5341C94.7107 54.5545 94.8074 54.5662 94.9422 54.5604L95.1563 54.5515L95.1709 52.2122C95.1825 50.1746 95.1914 49.8696 95.2295 49.8461C95.253 49.8315 95.5756 49.8168 95.9508 49.8168C96.722 49.8168 96.666 49.8373 96.666 49.553C96.666 49.4591 96.6572 49.3624 96.6486 49.3361C96.6309 49.295 96.4521 49.2892 94.9217 49.2892C93.406 49.2892 93.2067 49.295 93.1656 49.3361Z" fill="white"/>
<path d="M116.075 49.3654C116.057 49.4124 116.046 50.3975 116.046 51.9688C116.046 54.071 116.051 54.5048 116.087 54.5343C116.113 54.5576 116.544 54.5636 117.632 54.5606L119.139 54.5517L119.147 54.3172C119.153 54.1238 119.147 54.0768 119.106 54.0476C119.065 54.0183 118.775 54.0094 117.843 54.0094H116.632L116.6 53.9302C116.564 53.8365 116.576 52.2561 116.611 52.1975C116.629 52.1711 116.902 52.1624 117.805 52.1624H118.977L118.992 52.095C119.001 52.0597 119.007 51.9425 119.001 51.8398L118.992 51.6494L117.81 51.6348C116.805 51.6229 116.626 51.6141 116.603 51.5762C116.585 51.5527 116.573 51.1803 116.573 50.7199C116.573 50.0223 116.579 49.9021 116.62 49.864C116.658 49.8229 116.816 49.817 117.892 49.817C118.983 49.817 119.121 49.8112 119.136 49.7701C119.168 49.688 119.153 49.3596 119.118 49.3245C119.092 49.298 118.713 49.2892 117.594 49.2892H116.104L116.075 49.3654Z" fill="white"/>
</g>
</g>
<defs>
<clipPath id="clip0_4_2219">
<rect width="313" height="64.202" fill="white" transform="translate(0.358154 0.612061)"/>
</clipPath>
<clipPath id="clip1_4_2219">
<rect width="312.985" height="64.202" fill="white" transform="translate(0.365967 0.611816)"/>
</clipPath>
</defs>
</svg>
